/* XPM */
static char *_517170177974[] = {
/* columns rows colors chars-per-pixel */
"32 32 88 1 ",
"  c #3F3B3D",
". c gray24",
"X c #3E3C3D",
"o c #3E3D3D",
"O c #3D3E3D",
"+ c #3C3F3D",
"@ c #3D3F3D",
"# c #37473E",
"$ c #3B413D",
"% c #3A423D",
"& c #3B423D",
"* c #3A433D",
"= c #3C403D",
"- c #39443D",
"; c #3A443D",
": c #39453E",
"> c #38463E",
", c #36483E",
"< c #37483E",
"1 c #36493E",
"2 c #354B3E",
"3 c #364A3E",
"4 c #334D3E",
"5 c #334E3E",
"6 c #2E553F",
"7 c #2D573F",
"8 c #2E563F",
"9 c #2A5B3F",
"0 c #2B5B3F",
"q c #2D583F",
"w c #2C593F",
"e c #2A5D3F",
"r c #31513F",
"t c #31523F",
"y c #295D40",
"u c #285F40",
"i c #2A5E40",
"p c #1F6D41",
"a c #1E6F41",
"s c #1D7041",
"d c #1D7141",
"f c #1B7441",
"g c #1A7541",
"h c #197642",
"j c #177942",
"k c #177A42",
"l c #167B42",
"z c #157D42",
"x c #167C42",
"c c #147E42",
"v c #187942",
"b c #276040",
"n c #276140",
"m c #256340",
"M c #266240",
"N c #256440",
"B c #246640",
"V c #256640",
"C c #246740",
"Z c #296040",
"A c #216A41",
"S c #206E41",
"D c #206F41",
"F c #0F8643",
"G c #0E8743",
"H c #0F8743",
"J c #0D8943",
"K c #0E8843",
"L c #0E8943",
"P c #0D8A43",
"I c #0F8A43",
"U c #0F8B43",
"Y c #138042",
"T c #128142",
"R c #138142",
"E c #118343",
"W c #128242",
"Q c #128243",
"! c #148242",
"~ c #108443",
"^ c #118443",
"/ c #108543",
"( c #108643",
") c #118743",
"_ c #128643",
"` c #108943",
"' c #108A43",
"] c None",
/* pixels */
"]]]]]]]]]]]]]]]]]]]]]]]]]]]]]]]]",
"]]]]]]]]]]]]]]OOOO]]]]]]]]]]]]]]",
"]]]]]]]]]]]OOOOOOOOOOO]]]]]]]]]]",
"]]]]]]]]]OOOO<qMZq2OOOO]]]]]]]]]",
"]]]]]]]OOO$M(KKKKKK(A:OOO]]]]]]]",
"]]]]]]OOO7(KFK]]]]]KK(MOOO]]]]]]",
"]]]]]]OOCKK]]]]]]]]]]KKsOOO]]]]]",
"]]]]Kv0MKK]]]]]O&]]]]]KKatf(K]]]",
"]]KK(FKKK]]]]OOOOOO]]]]KKKKFKK]]",
"]K(e<]KK]]]]OO]]]]OO]]]]KEt:]FK]",
"KK0]]]:(K]]]O$]]]]]]]]]KK<O]]]KK",
"KF:O]OOvKKK]O]KFKKKKKKKK(&]]]$EK",
"KK5OO]&YKK]]O:]`KK((KKKKK<O]O:KK",
"]Kl<O]sK]]]]O&]]]] O]]]]Kh$O$hK]",
"]]K(zEKK]]]]]OOOOOO]]]]]KK(l(KK]",
"]]]KK(z]]]]]]]OOOO]]]]]]]](KK]]]",
"]]]KF$O]]]]]]]]OO]]]]]]]]]$EK]]]",
"]]]KK#O]]]]]]]]OO]]]]]]]]O$FK]]]",
"]]]KKCO]]]]]]]]OO]]]]]]]]OtKK]]]",
"]]]FFEOO]]]]]]]OO]]]]]]]OOlKK]]]",
"]]]]KKiO]]]]]]]OO]]]]]]]OtKK]]]]",
"]]]]KKF<O]]]]]]OO]]]]]]O&EKK]]]]",
"]]]]]KFY:O]]]]]OOO]]]]O&vKK]]]]]",
"]]]]]]K`E< O]OO&OOO]OO:vKK]]]]]]",
"]]]]]]]KK`C$OO]]YCOO&e(KK]]]]]]]",
"]]]]]]]]KKKhO<]'``7OCKKK]]]]]]]]",
"]]]]]]]]]]KsOe'``'S iKK]]]]]]]]]",
"]]]]]]]]]]]]OtK`]'iO]]]]]]]]]]]]",
"]]]]]]]]]]]]OOV_`D&O]]]]]]]]]]]]",
"]]]]]]]]]]]]]OO::OO]]]]]]]]]]]]]",
"]]]]]]]]]]]]]]]OOO]]]]]]]]]]]]]]",
"]]]]]]]]]]]]]]]]]]]]]]]]]]]]]]]]"
};
