/* XPM */
static char *_515189827289[] = {
/* columns rows colors chars-per-pixel */
"16 16 63 1 ",
"  c #3F393C",
". c #3B3F3D",
"X c #3D3C3C",
"o c #3D3D3C",
"O c #3E3C3C",
"+ c #3E3D3C",
"@ c #3C3E3D",
"# c #3C3F3D",
"$ c #43333C",
"% c #44323C",
"& c #42343C",
"* c #43343C",
"= c #42353C",
"- c #41363C",
"; c #41373C",
": c #42363C",
"> c #40383C",
", c #40393C",
"< c #37463D",
"1 c #36473D",
"2 c #3B403D",
"3 c #38453D",
"4 c #344A3E",
"5 c #344B3E",
"6 c #324E3E",
"7 c #2F533E",
"8 c #2E543E",
"9 c #275F3F",
"0 c #30513E",
"q c #27603F",
"w c #1F6C40",
"e c #1D6F41",
"r c #1B7241",
"t c #1A7341",
"y c #1C7141",
"u c #1A7441",
"i c #177941",
"p c #167A41",
"a c #147D42",
"s c #236640",
"d c #246440",
"f c #246540",
"g c #216940",
"h c #206A40",
"j c #0F8542",
"k c #0E8642",
"l c #0E8742",
"z c #0B8B43",
"x c #0C8943",
"c c #0B8C43",
"v c #098E43",
"b c #098F43",
"n c #0A8E43",
"m c #128042",
"M c #128142",
"N c #108342",
"B c #108442",
"V c #079143",
"C c #079243",
"Z c #059544",
"A c #089043",
"S c #089143",
"D c None",
/* pixels */
"DDDDDDDDDDDDDDDD",
"DDDDD:#552:DDDDD",
"DDD,#gBDDje.,DDD",
"DDD3NDDDDDDB<DDD",
"DNiSDD#=**DDcyjD",
"j5D9Se#ZSNjcsDDB",
"c8%ycD2DDgDcr:8j",
"DjNzDDD::DDDzajD",
"DVgDDDD##DDDDfVD",
"DDp:DDDD#DDD%uDD",
"DDc8DDDD#DDD0cDD",
"DDDz5DD##DD3jDDD",
"DDDDcf rD 9cDDDD",
"DDDDDp#DD:rDDDDD",
"DDDDDD#<0#DDDDDD",
"DDDDDDDDDDDDDDDD"
};
