/* XPM */
static char *_517170149881[] = {
/* columns rows colors chars-per-pixel */
"16 16 61 1 ",
"  c #3E3C3D",
". c #3D3E3D",
"X c #3C3F3D",
"o c #3D3F3D",
"O c #37473E",
"+ c #3B413D",
"@ c #3B423D",
"# c #3A433D",
"$ c #38453E",
"% c #38463E",
"& c #38473E",
"* c #36483E",
"= c #37483E",
"- c #324F3E",
"; c #334F3E",
": c #2F543F",
"> c #2D573F",
", c #2C593F",
"< c #2D593F",
"1 c #2C5A3F",
"2 c #31503E",
"3 c #30533F",
"4 c #31533F",
"5 c #295D40",
"6 c #1F6D41",
"7 c #1E6F41",
"8 c #1D7141",
"9 c #1C7241",
"0 c #1B7441",
"q c #1A7541",
"w c #197642",
"e c #177A42",
"r c #177B42",
"t c #157D42",
"y c #167C42",
"u c #147E42",
"i c #147F42",
"p c #1A7842",
"a c #266340",
"s c #246540",
"d c #226840",
"f c #236840",
"g c #216A41",
"h c #206B41",
"j c #206C41",
"k c #226C41",
"l c #0F8643",
"z c #0F8743",
"x c #0D8943",
"c c #0E8843",
"v c #0C8A43",
"b c #0D8A43",
"n c #128142",
"m c #118343",
"M c #128243",
"N c #108443",
"B c #118443",
"V c #108543",
"C c #118843",
"Z c #108A43",
"A c None",
/* pixels */
"AAAAAAAAAAAAAAAA",
"AAAAA $33$ AAAAA",
"AAA $knbcMj= AAA",
"AAA3uAAAAAAu:jAA",
"AuqVAA   AAAn9MA",
"n3Asb9$VZMccjAAM",
"N,$9bA@AAsAA0$5M",
"ANunAAA  AAAArNA",
"AvjAAAAA AAAAkcA",
"AAp@AAAA AAA@qAA",
"AAZ5AAAA@AAA,zAA",
"AAAN3AAo AA:nAAA",
"AAAANf#k0@sVAAAA",
"AAAAA82CC5kAAAAA",
"AAAAAAo55@AAAAAA",
"AAAAAAAAAAAAAAAA"
};
