/* XPM */
static char *_517170199233[] = {
/* columns rows colors chars-per-pixel */
"64 64 191 2 ",
"   c #3F3A3D",
".  c #3F3B3D",
"X  c gray24",
"o  c #3E3C3D",
"O  c #3F3C3D",
"+  c #3E3D3D",
"@  c #3C3E3D",
"#  c #3D3E3D",
"$  c #3C3F3D",
"%  c #3D3F3D",
"&  c #3E3E3D",
"*  c #511D3A",
"=  c #511F3A",
"-  c #511E3B",
";  c #4E223B",
":  c #4F223B",
">  c #4E233B",
",  c #4B273B",
"<  c #4D243B",
"1  c #4D253B",
"2  c #4C263B",
"3  c #472E3B",
"4  c #462F3B",
"5  c #472D3C",
"6  c #472E3C",
"7  c #462F3C",
"8  c #472F3C",
"9  c #4A283B",
"0  c #4A293B",
"q  c #482B3B",
"w  c #492B3B",
"e  c #4A2A3B",
"r  c #4B2A3B",
"t  c #482C3B",
"y  c #482D3B",
"u  c #4A283C",
"i  c #4A293C",
"p  c #492A3C",
"a  c #482B3C",
"s  c #492B3C",
"d  c #4A2A3C",
"f  c #482C3C",
"g  c #492C3C",
"h  c #482D3C",
"j  c #482E3C",
"k  c #50213B",
"l  c #45303C",
"z  c #45313C",
"x  c #45313D",
"c  c #46303C",
"v  c #47303C",
"b  c #46313C",
"n  c #46313D",
"m  c #44323C",
"M  c #45323C",
"N  c #44333D",
"B  c #43343C",
"V  c #42353C",
"C  c #43353C",
"Z  c #43353D",
"A  c #41373C",
"S  c #41373D",
"D  c #42363C",
"F  c #43363C",
"G  c #42373C",
"H  c #42363D",
"J  c #42373D",
"K  c #44343C",
"L  c #41383C",
"P  c #40383D",
"I  c #41383D",
"U  c #40393D",
"Y  c #41393D",
"T  c #42383D",
"R  c #403A3D",
"E  c #403B3D",
"W  c #3B403D",
"Q  c #3B413D",
"!  c #3A423D",
"~  c #3B423D",
"^  c #3A433D",
"/  c #3A423E",
"(  c #3B423E",
")  c #3C403D",
"_  c #3C413D",
"`  c #0F8543",
"'  c #0F8643",
"]  c #0E8743",
"[  c #0F8743",
"{  c #0D8943",
"}  c #0E8843",
"|  c #0F8843",
" . c #0E8943",
".. c #0C8A43",
"X. c #0D8A43",
"o. c #0C8B43",
"O. c #0E8B43",
"+. c #0B8C43",
"@. c #0B8D43",
"#. c #098F43",
"$. c #0A8E43",
"%. c #0B8E43",
"&. c #0A8F43",
"*. c #0C8C43",
"=. c #0E8C43",
"-. c #0E8D43",
";. c #0D8E43",
":. c #0C8B44",
">. c #0B8D44",
",. c #098F44",
"<. c #0A8E44",
"1. c #0B8E44",
"2. c #0A8F44",
"3. c #0C8C44",
"4. c #0C8F44",
"5. c #118342",
"6. c #108443",
"7. c #118443",
"8. c #108543",
"9. c #118543",
"0. c #128543",
"q. c #108643",
"w. c #118743",
"e. c #128642",
"r. c #128643",
"t. c #128743",
"y. c #108843",
"u. c #108943",
"i. c #079243",
"p. c #079244",
"a. c #079344",
"s. c #059544",
"d. c #069444",
"f. c #079444",
"g. c #069544",
"h. c #059644",
"j. c #049744",
"k. c #059744",
"l. c #069644",
"z. c #099043",
"x. c #099143",
"c. c #0C9043",
"v. c #0C9143",
"b. c #099044",
"n. c #089144",
"m. c #099144",
"M. c #0A9044",
"N. c #089244",
"B. c #089344",
"V. c #0C9044",
"C. c #039844",
"Z. c #039944",
"A. c #039945",
"S. c #029A44",
"D. c #039A44",
"F. c #029B44",
"G. c #039B44",
"H. c #039A45",
"J. c #029B45",
"K. c #039B45",
"L. c #049844",
"P. c #049944",
"I. c #049845",
"U. c #049945",
"Y. c #079944",
"T. c #049B44",
"R. c #069A44",
"E. c #019C44",
"W. c #019C45",
"Q. c #009D45",
"!. c #019D45",
"~. c #029C44",
"^. c #039C44",
"/. c #029C45",
"(. c #029D45",
"). c #009E45",
"_. c #019E45",
"`. c #009F45",
"'. c #049C44",
"]. c #00A144",
"[. c #00A045",
"{. c #00A145",
"}. c #01A244",
"|. c #00A245",
" X c #00A345",
".X c #00A444",
"XX c #00A545",
"oX c #00A745",
"OX c #00A846",
"+X c #00AA46",
"@X c None",
/* pixels */
"@X@X@X@X@X@X@X@X@X@X@X@X@X@X@X@X@X@X@X@X@X@X@X@X@X@X@X@X@X@X@X@X@X@X@X@X@X@X@X@X@X@X@X@X@X@X@X@X@X@X@X@X@X@X@X@X@X@X@X@X@X@X@X@X",
"@X@X@X@X@X@X@X@X@X@X@X@X@X@X@X@X@X@X@X@X@X@X@X@X@X@X@X@X@X@X@X@X@X@X@X@X@X@X@X@X@X@X@X@X@X@X@X@X@X@X@X@X@X@X@X@X@X@X@X@X@X@X@X@X",
"@X@X@X@X@X@X@X@X@X@X@X@X@X@X@X@X@X@X@X@X@X@X@X@X@X@X@X@X@X# # # # # # @X@X@X@X@X@X@X@X@X@X@X@X@X@X@X@X@X@X@X@X@X@X@X@X@X@X@X@X@X",
"@X@X@X@X@X@X@X@X@X@X@X@X@X@X@X@X@X@X@X@X@X@X@X@X@X# # # # # # # # # # # # # # @X@X@X@X@X@X@X@X@X@X@X@X@X@X@X@X@X@X@X@X@X@X@X@X@X",
"@X@X@X@X@X@X@X@X@X@X@X@X@X@X@X@X@X@X@X@X@X@X# # # # # # # # # # # # # # # # # # # # @X@X@X@X@X@X@X@X@X@X@X@X@X@X@X@X@X@X@X@X@X@X",
"@X@X@X@X@X@X@X@X@X@X@X@X@X@X@X@X@X@X@X@X# # # # # # ) E E E H E E H H   E # # # # # # # @X@X@X@X@X@X@X@X@X@X@X@X@X@X@X@X@X@X@X@X",
"@X@X@X@X@X@X@X@X@X@X@X@X@X@X@X@X@X@X# # # # # # # x s H # ) @X@X@X@X@X# # g 8   # ) # # # # @X@X@X@X@X@X@X@X@X@X@X@X@X@X@X@X@X@X",
"@X@X@X@X@X@X@X@X@X@X@X@X@X@X@X@X@X# # # # ) H 8 H @X@X@X@X@X@X@X@X@X@X@X@X@X@XE g x ) ) # # # # @X@X@X@X@X@X@X@X@X@X@X@X@X@X@X@X",
"@X@X@X@X@X@X@X@X@X@X@X@X@X@X@X# # # # # E e # @X@X@X{.a.>.@.@.*.@.@.@.>.>.(.@X@X@X@Xs x ) # # # # @X@X@X@X@X@X@X@X@X@X@X@X@X@X@X",
"@X@X@X@X@X@X@X@X@X@X@X@X@X@X# # # # ) x   @X@X(.x.[ q.[ [ X.[ X.X.[ X.[ [ q.X.@.(.@X@X@X1 # ) # # # @X@X@X@X@X@X@X@X@X@X@X@X@X@X",
"@X@X@X@X@X@X@X@X@X@X@X@X@X# # # )   : @X@X(.>.q.[ X.X.[ [ @X@X@X@X@X@X[ X.[ [ [ [ [ (.@X@Xx K # # # # @X@X@X@X@X@X@X@X@X@X@X@X@X",
"@X@X@X@X@X@X@X@X@X@X@X@X# # # ) H x @X@Xj.5.X.[ [ @X@X@X@X@X@X@X@X@X@X@X@X@X@XX.[ [ q.:.OX@X@Xx ) # # # @X@X@X@X@X@X@X@X@X@X@X@X",
"@X@X@X@X@X@X@X@X@X@X@XQ # # ) H 8 @XoXX.q.[ X.@X@X@X@X@X@X@X@X@X@X@X@X@X@X@X@X@X@XX.X.[ 5.P.@X@Xs ) # # Q @X@X@X@X@X@X@X@X@X@X@X",
"@X@X@X@X@X@X@X@X@X@X@Xs x ) H g @X(.q.[ [ X.@X@X@X@X@X@X@X@X@X@X@X@X@X@X@X@X@X@X@X@X@XX.:.7.j.@X@Xg Q E 8 s @X@X@X@X@X@X@X@X@X@X",
"@X@X@X@X@X@X@X@X@X@X@X@X@Xe e @X(.[ [ X.@X@X@X@X@X@X@X@X@X@X@X@X@X@X@X@X@X@X@X@X@X@X@X@X' [ 5.j.@X@X* Q @X@X@X@X@X@X@X@X@X@X@X@X",
"@X@X@X@X@X@XX.X.[ X.a.{.@X@X@X(.q.X.[ @X@X@X@X@X@X@X@X@X@X# # # # # # # @X@X@X@X@X@X@X@X@X:.' 7.P.@X@X@X(.P.>.[ [ X.X.@X@X@X@X@X",
"@X@X@X@XX.[ [ X.@.x.X.5.' P.@X@XX.[ @X@X@X@X@X@X@X@X@X# # # # # # # # # # @X@X@X@X@X@X@X@X@X[ X.@X@X(.*.q.X.@.@.*.[ X.X.@X@X@X@X",
"@X@X@X[ [ [ a.a.5.@Xa.j.7.' [ @X@X@X@X@X@X@X@X@X@X@X# # # # # # # # # # # # @X@X@X@X@X@X@X@X@X@X@X:.q.*.P.*.@X@Xx.(.{ [ [ @X@X@X",
"@X@XX.X.X.(.@X@XK # @X@X{.X.[ X.@X@X@X@X@X@X@X@X@X# # Q # @X@X@X@X@X@XE # Q $ @X@X@X@X@X@X@X@X@XX.[ >.j.@X@X@XH @X@XM.M.[ [ @X@X",
"@X@Xq.q.Z.@X@Xg E E t @X@XZ.X.[ X.@X@X@X@X@X@X@X# # ) H @X@X@X@X@X@X@X@Xs s g s @X@X@X@X@X@X@XX.[ *.M.@X* H E   @X@X@Xa.{ [ X.@X",
"@X[ [ a.@X@X@X@X@X@XQ # @X@XM.X.X.@X@X@X@X@X@X@XE #   @X@X@X@X@X@X@X@X@X@X@X@X@X@X@X@X@X@X@X@X[ [ Z.@Xk Q Q @X@X@X@X@X@XZ.X.[ @X",
"@XX.[ Z.@Xe ) @X@X@X@X# E x @XM.[ [ X.[ X.*.@X@XE $ 8 @X@XX.[ [ X.[ [ @.(.(.(.{.Z.X.[ X.X.[ X.[ { M.@XK # @X# # @X@X@X@X*.@.[ X.",
"X.[ @.X.@XE ) @X@X@X# # # g @Xj.[ [ X.[ X.@.@X@XH   # @XM.[ X.[ [ [ [ X.[ [ [ [ [ X.[ [ X.[ [ [ j.@Xx # @X@X@X@X@X@XE @X@Xx.[ X.",
"X.[ M.@X@XE # # @X# # # $ g @Xj.[ X.[ [ X.@.@X@XH E @X@X@.[ [ [ X.X.[ [ [ [ [ [ [ [ [ X.[ [ X.[ j.@Xt # @X@X@X@X@X# E # @X@.[ [ ",
"[ [ X.a.@X8 ) # # @X@X@X# 5 @Xj.[ [ [ { X.@.@X@XE # x @X(.q.[ X.[ [ [ X.j.'.P.(.j.q.[ X.[ [ X.[ *.@X@XH ) # @X@X@X# H @X@X*.X.X.",
"@XX.[ j.@Xx # # # # @X@Xg @X@XX.[ X.@X@X@X@X@X@XH # 8 @X@X@X@X@X@X@X@X@X@X@X@X@X@X@X@X@X@X@X@X[ [ Z.@X1 ) # @X@X# ) 1 @XZ.X.q.@X",
"@XX.[ [ {.@X- H E # @Xg g @Xj.q.X.@X@X@X@X@X@X@X  # Q 8 @X@X@X@X@X@X@X@X@X: , @X@X@X@X@X@X@X@XX.[ X.@X@X: E @X@XE : @X@XX.q.X.@X",
"@X@X[ [ @.>.@X# E H @X@X@XP.q.[ [ @X@X@X@X@X@X@X@X# # Q H @X@X@X@X@X@X@X# Q Q Q @X@X@X@X@X@X@X@X[ [ M.@X@X#     # @X@XM.q.X.@X@X",
"@X@X@XX.q.X.Z.@X@X@X@Xj.j.5.[ X.@X@X@X@X@X@X@X@X@X# # # # # @X@X@X@X# # # # # @X@X@X@X@X@X@X@X@XX.X.q.:.(.@X@X@X@X(.3.5.[ [ @X@X",
"@X@X@XX.[ [ [ 3.M.x.M.X.X.:.X.@X@X@X@X@X@X@X@X@X@X@X# # # # # # # # # # # # @X@X@X@X@X@X@X@X@X@X@X[ [ [ [ >.M.M.>.' ' X.X.@X@X@X",
"@X@X@X@X@XX.[ X.X.[ @.Z.@.@.@X@X@X@X@X@X@X@X@X@X@X@X@X@X# # # # # # # # # @X@X@X@X@X@X@X@X@X@X@X@X@X@Xa.Z.>.[ q.:.[ X.@X@X@X@X@X",
"@X@X@X@X@X@X@X@X@XM.X.@X@X@X@X@X@X@X@X@X@X@X@X@X@X@X@X@X@X@X# # # # @X@X@X@X@X@X@X@X@X@X@X@X@X@X@X@X@X@X@X5.:.X.@X@X@X@X@X@X@X@X",
"@X@X@X@X@XX.X.@X@X@X@Xr 5 @X@X@X@X@X@X@X@X@X@X@X@X@X@X@X@X@X# # # # @X@X@X@X@X@X@X@X@X@X@X@X@X@X@X@X@X8 : @X@X@X@XX.[ @X@X@X@X@X",
"@X@X@X@X@X@X[ [ M.@X@XE Q @X@X@X@X@X@X@X@X@X@X@X@X@X@X@X@X@X# # # # @X@X@X@X@X@X@X@X@X@X@X@X@X@X@X@X@X# E E @X>.q.X.X.@X@X@X@X@X",
"@X@X@X@X@X@XX.[ @.3.@XH ) # @X@X@X@X@X@X@X@X@X@X@X@X@X@X@X@X# # # # @X@X@X@X@X@X@X@X@X@X@X@X@X@X@X@X@X# H @X@X{ [ [ X.@X@X@X@X@X",
"@X@X@X@X@X@X[ [ :.Z.@Xt ) # @X@X@X@X@X@X@X@X@X@X@X@X@X@X@X@X# # # # @X@X@X@X@X@X@X@X@X@X@X@X@X@X@X@X# ) 8 @X(.[ X.[ @X@X@X@X@X@X",
"@X@X@X@X@X@XX.X.q.j.@Xx # # @X@X@X@X@X@X@X@X@X@X@X@X@X@X@X@X# # # # @X@X@X@X@X@X@X@X@X@X@X@X@X@X@X@X# # 5 @XZ.:.[ [ @X@X@X@X@X@X",
"@X@X@X@X@X@X[ [ [ X.@X@XH # # @X@X@X@X@X@X@X@X@X@X@X@X@X@X@X# # # # @X@X@X@X@X@X@X@X@X@X@X@X@X@X@X@X#   @X@X>.[ X.X.@X@X@X@X@X@X",
"@X@X@X@X@X@X@X[ [ [ Z.@Xe # # @X@X@X@X@X@X@X@X@X@X@X@X@X@X@X# # # # @X@X@X@X@X@X@X@X@X@X@X@X@X@X@X# Q 8 @XZ.[ [ [ @X@X@X@X@X@X@X",
"@X@X@X@X@X@X@X[ X.X.>.@X@XE # # @X@X@X@X@X@X@X@X@X@X@X@X@X@X# # # # @X@X@X@X@X@X@X@X@X@X@X@X@X@X@X# # 1 @XP.[ X.X.@X@X@X@X@X@X@X",
"@X@X@X@X@X@X@X@XX.[ [ (.@X: Q # @X@X@X@X@X@X@X@X@X@X@X@X@X@X# # # # @X@X@X@X@X@X@X@X@X@X@X@X@X@X# # 5 @XZ.[ [ [ [ @X@X@X@X@X@X@X",
"@X@X@X@X@X@X@X@X[ [ [ { @X@X8 Q # @X@X@X@X@X@X@X@X@X@X@X@X@X# # # # @X@X@X@X@X@X@X@X@X@X@X@X@X# # E @X@XM.[ X.X.@X@X@X@X@X@X@X@X",
"@X@X@X@X@X@X@X@X@XX.[ q.P.@X@XH ) # @X@X@X@X@X@X@X@X@X@X@X@X# # # # @X@X@X@X@X@X@X@X@X@X@X@X# # # , @XZ.[ X.[ [ @X@X@X@X@X@X@X@X",
"@X@X@X@X@X@X@X@X@X[ X.[ 7.(.@Xg H ) # @X@X@X@X@X@X@X@X@X@X@X# # # # @X@X@X@X@X@X@X@X@X@X@X# # ) 1 @XZ.X.X.[ X.@X@X@X@X@X@X@X@X@X",
"@X@X@X@X@X@X@X@X@X@XX.[ [ q.{.@Xg H ) # @X@X@X@X@X@X@X@X@X@X# # # # @X@X@X@X@X@X@X@X@X@X# # Q s @X@X>.X.[ X.@X@X@X@X@X@X@X@X@X@X",
"@X@X@X@X@X@X@X@X@X@X@XX.[ :.' {.@Xs E ) # # @X@X@X@X@X@X# # # # # # # # @X@X@X@X@X@X@X# # # 1 @X@XM.q.X.[ X.@X@X@X@X@X@X@X@X@X@X",
"@X@X@X@X@X@X@X@X@X@X@XX.[ [ ' ' {.@Xs g Q # # @X@X@X@X# # ) E H E H # $ # # @X@X@X# # ) H e @X@X>.[ [ [ X.@X@X@X@X@X@X@X@X@X@X@X",
"@X@X@X@X@X@X@X@X@X@X@X@X[ X.:.' ' (.@X@X1 H ) # @X@X# # E g ) ) @XQ x L Q # @X@X# ) # 8 H @X@X>.[ [ X.[ @X@X@X@X@X@X@X@X@X@X@X@X",
"@X@X@X@X@X@X@X@X@X@X@X@X@XX.[ [ [ q.Z.@X@X# s E @X# # E K @X@X@X@X@X@Xx x ) # @X) 8 s @X@Xj.X.[ [ [ X.@X@X@X@X@X@X@X@X@X@X@X@X@X",
"@X@X@X@X@X@X@X@X@X@X@X@X@X@X[ X.X.[ 7.:.(.@X@X@X@X# # e @X@X@X@Xc.*.{.@X5 # # ) @X@X@X@Xa.[ [ [ X.[ @X@X@X@X@X@X@X@X@X@X@X@X@X@X",
"@X@X@X@X@X@X@X@X@X@X@X@X@X@X@XX.X.[ [ [ [ @.OX@X5 # 8 @X@X@X@Xu.u.u.q.{.@Xg # z @X@XZ.X.' ' [ X.X.@X@X@X@X@X@X@X@X@X@X@X@X@X@X@X",
"@X@X@X@X@X@X@X@X@X@X@X@X@X@X@X@X@X[ X.[ X.[ j.@Xz # x @XY.@Xu.u.u.u.u.V.@X@XE B @X@X{ [ [ :.[ X.@X@X@X@X@X@X@X@X@X@X@X@X@X@X@X@X",
"@X@X@X@X@X@X@X@X@X@X@X@X@X@X@X@X@X@XX.X.X.X.x.@XB E @X@X*.u.u.u.u.u.u.u.*.@XK E @X@X@.X.X.[ @X@X@X@X@X@X@X@X@X@X@X@X@X@X@X@X@X@X",
"@X@X@X@X@X@X@X@X@X@X@X@X@X@X@X@X@X@X@X@X[ *.@.@XB H @X@Xc.u.u.u.u.u.u.u.*.@XE H @X@X*.X.@X@X@X@X@X@X@X@X@X@X@X@X@X@X@X@X@X@X@X@X",
"@X@X@X@X@X@X@X@X@X@X@X@X@X@X@X@X@X@X@X@X@X@XP.@X5 # z @XP.t.u.u.@Xu.u.V.@X@XH H @X@X@X@X@X@X@X@X@X@X@X@X@X@X@X@X@X@X@X@X@X@X@X@X",
"@X@X@X@X@X@X@X@X@X@X@X@X@X@X@X@X@X@X@X@X@X@X@X@Xz ) 5 @X'.c.u.@X@X@Xq.oX@Xx # E @X@X@X@X@X@X@X@X@X@X@X@X@X@X@X@X@X@X@X@X@X@X@X@X",
"@X@X@X@X@X@X@X@X@X@X@X@X@X@X@X@X@X@X@X@X@X@X@X@X# # ) s @X'.P.X.u.c.oX@X@XE # # @X@X@X@X@X@X@X@X@X@X@X@X@X@X@X@X@X@X@X@X@X@X@X@X",
"@X@X@X@X@X@X@X@X@X@X@X@X@X@X@X@X@X@X@X@X@X@X@X@X@X# # # r @X@XV.u.u.@X@XK ) # @X@X@X@X@X@X@X@X@X@X@X@X@X@X@X@X@X@X@X@X@X@X@X@X@X",
"@X@X@X@X@X@X@X@X@X@X@X@X@X@X@X@X@X@X@X@X@X@X@X@X@X@X# ) ) t @X@X@X@Xs # ) # # @X@X@X@X@X@X@X@X@X@X@X@X@X@X@X@X@X@X@X@X@X@X@X@X@X",
"@X@X@X@X@X@X@X@X@X@X@X@X@X@X@X@X@X@X@X@X@X@X@X@X@X@X@X# # ) # H E E # # # # @X@X@X@X@X@X@X@X@X@X@X@X@X@X@X@X@X@X@X@X@X@X@X@X@X@X",
"@X@X@X@X@X@X@X@X@X@X@X@X@X@X@X@X@X@X@X@X@X@X@X@X@X@X@X@X# # # ) # ) # # @X@X@X@X@X@X@X@X@X@X@X@X@X@X@X@X@X@X@X@X@X@X@X@X@X@X@X@X",
"@X@X@X@X@X@X@X@X@X@X@X@X@X@X@X@X@X@X@X@X@X@X@X@X@X@X@X@X@X@X# # # # @X@X@X@X@X@X@X@X@X@X@X@X@X@X@X@X@X@X@X@X@X@X@X@X@X@X@X@X@X@X",
"@X@X@X@X@X@X@X@X@X@X@X@X@X@X@X@X@X@X@X@X@X@X@X@X@X@X@X@X@X@X@X@X@X@X@X@X@X@X@X@X@X@X@X@X@X@X@X@X@X@X@X@X@X@X@X@X@X@X@X@X@X@X@X@X",
"@X@X@X@X@X@X@X@X@X@X@X@X@X@X@X@X@X@X@X@X@X@X@X@X@X@X@X@X@X@X@X@X@X@X@X@X@X@X@X@X@X@X@X@X@X@X@X@X@X@X@X@X@X@X@X@X@X@X@X@X@X@X@X@X"
};
