/* XPM */
static char *_515189890581[] = {
/* columns rows colors chars-per-pixel */
"128 128 24 1 ",
"  c #3F3A3C",
". c #3E3B3C",
"X c #3B3F3D",
"o c #3D3C3C",
"O c #3D3D3C",
"+ c gray24",
"@ c #3E3C3C",
"# c #3C3E3D",
"$ c #3D3E3D",
"% c #3C3F3D",
"& c #3B403D",
"* c #0F8542",
"= c #0D8742",
"- c #0E8642",
"; c #0F8642",
": c #0E8742",
"> c #0E8743",
", c #0D8842",
"< c #0D8843",
"1 c #0C8943",
"2 c #0D8943",
"3 c #0E8843",
"4 c #0C8A43",
"5 c None",
/* pixels */
"55555555555555555555555555555555555555555555555555555555555555555555555555555555555555555555555555555555555555555555555555555555",
"55555555555555555555555555555555555555555555555555555555555555555555555555555555555555555555555555555555555555555555555555555555",
"55555555555555555555555555555555555555555555555555555555555555555555555555555555555555555555555555555555555555555555555555555555",
"55555555555555555555555555555555555555555555555555555555555555555555555555555555555555555555555555555555555555555555555555555555",
"55555555555555555555555555555555555555555555555555555555555555555555555555555555555555555555555555555555555555555555555555555555",
"55555555555555555555555555555555555555555555555555555555555555555555555555555555555555555555555555555555555555555555555555555555",
"5555555555555555555555555555555555555555555555555555555$$$$$$$$$$$$$$$$$$$555555555555555555555555555555555555555555555555555555",
"55555555555555555555555555555555555555555555555555$$$$$$$$$$$$$$$$$$$$$$$$$$$$55555555555555555555555555555555555555555555555555",
"55555555555555555555555555555555555555555555555$$$$$$$$$$$$$$$$$$$$$$$$$$$$$$$$$$$5555555555555555555555555555555555555555555555",
"55555555555555555555555555555555555555555555$$$$$$$$$$$$$$$$$$$$$$$$$$$$$$$$$$$$$$$$55555555555555555555555555555555555555555555",
"555555555555555555555555555555555555555555$$$$$$$$$$$$$$$$$$$$$$$$$$$$$$$$$$$$$$$$$$$$$55555555555555555555555555555555555555555",
"5555555555555555555555555555555555555555$$$$$$$$$$$$$$$$$$$$$$$$$$$$$$$$$$$$$$$$$$$$$$$$$555555555555555555555555555555555555555",
"55555555555555555555555555555555555555$$$$$$$$$$$$$$$$$$$$$$$$$$$$$$$$$$$$$$$$$$$$$$$$$$$$55555555555555555555555555555555555555",
"555555555555555555555555555555555555$$$$$$$$$$$$$$$$$$$$$XX$$X&&X&&XX$$XX$$$$$$$$$$$$$$$$$$$555555555555555555555555555555555555",
"55555555555555555555555555555555555$$$$$$$$$$$$$$$$$X$X555555555555555555X$XX$$$$$$$$$$$$$$$$$5555555555555555555555555555555555",
"555555555555555555555555555555555$$$$$$$$$$$$$$$$X$55555555555::::55555555555XX$$$$$$$$$$$$$$$$555555555555555555555555555555555",
"55555555555555555555555555555555$$$$$$$$$$$$$$X$5555555;<;<;<;<;::;::;<;;;555555&$$$$$$$$$$$$$$$$5555555555555555555555555555555",
"5555555555555555555555555555555$$$$$$$$$$$$o$$55555;;<;3;<;3;333<>33<3;<33;;:;55555$$$$$$$$$$$$$$$555555555555555555555555555555",
"55555555555555555555555555555$$$$$$$$$$$X$XX5555;;;24;33<333<333<33333<33333<;<;55555$$$$$$$$$$$$$$55555555555555555555555555555",
"5555555555555555555555555555$$$$$$$$$$$$$$5555:;3233323333333333<33333333333<333<<;5555$o$$$$$$$$$$$5555555555555555555555555555",
"555555555555555555555555555$$$$$$$$$$$$$5555:>3>3333333333333333333333333333333333<;:555$X$X$$$$$$$$$555555555555555555555555555",
"55555555555555555555555555$$$$$$$$$$$$$555:<<>333333333333555555555555333333333333<>::5555$$$$$$$$$$$$55555555555555555555555555",
"5555555555555555555555555$$$$$$$$$X$$555::<>3333333333555555555555555555555333333333<><:555$$$$$$$$$$$$5555555555555555555555555",
"555555555555555555555555$$$$$$$$$$$$555<:><<33333335555555555555555555555555553333333<:<<:555X$$$$$$$$$$555555555555555555555555",
"55555555555555555555555$$$$$$$$$$$$555;<333333335555555555555555555555555555555533333333><;555$$$$$$$$$$$55555555555555555555555",
"55555555555555555555555$$$$$$$$$$555:<>33333335555555555555555555555555555555555553333333><<555$$X$$$$$$$$5555555555555555555555",
"5555555555555555555555$$$$$$$$X$555;<><333333555555555555555555555555555555555555555333333;<<555$$X$$$$$$$$555555555555555555555",
"555555555555555555555$X$$$$$$$$555<<:<333335555555555555555555555555555555555555555555333333><555$ X$$$$$$$$55555555555555555555",
"555555555555555555555$$$X$$$X$555;<33333335555555555555555555555555555555555555555555553333333<555X$$$$X$&$$55555555555555555555",
"5555555555555555555555555X$Xo$55;<<33333555555555555555555555555555555555555555555555555333333><555$$XX$555555555555555555555555",
"555555555555553333:<::<5555$$55:<333333555555555555555555555$$$$&@$$$55555555555555555555533333><555$$5555;<;<3333<5555555555555",
"55555555555333333<<<:::::<5555:<3333335555555555555555555$$$$$$$@&$$$$$5555555555555555555533333>:55555:<;<;3<333<;<<55555555555",
"5555555555333333<<;333333;<;55<333333555555555555555555$$$$$$$$$$$$$$$$$$55555555555555555553333<<555<;<>33333333333333555555555",
"5555555533333333<<<3333<33<<;55<3333555555555555555555$$$$$$$$$$$$$$$$$$$$$555555555555555555333<55;<;<;333333333333333355555555",
"5555555333333<33::::3<;;33;<3355333555555555555555555$$$$$$$$$$$$$$$$$$$$$$$55555555555555555333553333<;33<<3<3<3<33333333555555",
"5555553333333;<;::::;<<<33<;333553555555555555555555$$$$$$$$$$$$$$$$$$$$$$$$$55555555555555555355<333<;<<:::;;;;;:;3333333355555",
"55555333<<:<;;<5555555<<<33333335555555555555555555$$$$$$$$$$5555555$$$$$$$$$$5555555555555555555333333<::55555555;<<;3333355555",
"55553333<:<:<555 $$ 5555;3333333355555555555555555$$$$$$$$$55555555555$$$$$$$$555555555555555555333333<;555555555555<<3<33335555",
"555533333<<555$&$XX$$55555<<333335555555555555555$$$$$$$$55555555555555$$$$$$$$555555555555555533333<<<555X$$X$X&5555;<;33333555",
"55533333<;55$$$$$$555$55555;<33333555555555555555$$$$$$$5555555555555555$$$$$$$$555555555555555333<;<;55X$$$$$$$555555;<33333555",
"555333;<<;55$5555555$$$5555;<3323355555555555555$$$$$$$555555555555555555&$$$$$$5555555555555533333<:55X$X$$$$555555555<<3333355",
"553333<;<5555555555$5$$55555<;323335555555555555$$$$$$$5555555555555555555555555555555555555553333<;55$$$$$$555555555555;3333355",
"553333;<55$55555555555$$$$&55;2;3335555555555555$$$$$$5555555555555555555555555555555555555555333<3;55X$$$$5555$5$555555<<;33355",
"553333<;55$$$$555555555$$$&&5;;43333333333333555$$$$$$5553333333<<<;333<<;<;<:::33333333333333333;<<5X$$$$5$$$$5555555555;<33335",
"553333;<5$$$$$$555555$$$$$$$5<<;333333333333;55&$$$$$$55>33333333333333333333333333333333333333333<55&$$$$55$$$5555555555<333335",
"55333<<45$X$$$$55555$$$$$$$$55;<333333333333<55&$$$$$555333333333333333333333333333333333333333333;55$$$$555555555$$55$55;333335",
"5533<;:55$$$$$$555$$$$$$$$$&55;<3333333333;<;55$$$$$$555333333333333333333333333333333333333333333;55$$$55555555$55$$$$55;333335",
"5533<<:55X$$$$$$55$$$$$$$$$$55<;3333333333<;<55$$$$$$555333333333333333333333333333333333333333333<55$$$555555555$$$$$$55<333335",
"553333;45$X$$$$$$$55$$$$$$$X55;<333333333333;55&&@$$$555333333333333333333<333333333333333333333<<:55$$$$555555555$$$$$55:333335",
"553333;45$$$$$$$$$$5555$$$X$5<<;333333333333<55&$$$$$&55333333333333333333;<3333<;333333333333333<:555X$$$$$55555$$$$XX55:333335",
"553333<;55X$$$$$$$$555555$$@5::<333333333333;555$$$$$$5553333333333333333;<;<;;<<<;<33333333333333:<55$$$$$$5555$$$$$$$5<:><3335",
"55333<;<55$$X$$$$$$555555$$55:<<3335555555555555$$$$$@55555555555555555555555555555555555555553333>:55X$$$$$5555$$$$X$55:><<3355",
"5533333;:55X$$$$$$$$5555$$$5<;333335555555555555$$$$$$&55555555555555555555555555555555555555533333;55X$$$$$5555$$$X$X55;3333355",
"5553333<::5$$$$$$$$$555$$&5<;33333555555555555555$$$$$@555555555555555555$$$&&$$555555555555553333<<:55$$$$$$55$$$$$$55:<3333355",
"55533333<::5$$$$$$$$55$X&55;<<3333555555555555555$$$$$$$5555555555555555$$$$$$$$55555555555555533333<:55$$$$$$@&$X$$55:<<3333555",
"55553333:<::55&&X$X$5X$555<<<;33355555555555555555$$$$$$$55555555555555$$$$$$$$555555555555555533333><<555&$$$&&$$555:<:33333555",
"5555333333<;;5555oo55555<:<:3333355555555555555555$$$$$$$$$55555555555$$$$$$$$55555555555555555533333><;555555555555;<>333335555",
"5555533333<<3;<5555555<;:<;<33335555555555555555555$$$$$$$$$$5555555$$$$$$$$$$555555555555555555533333<<;;<555555<:;<>3333355555",
"55555533333333<;::::;<;>33<333<555555555555555555555$$$$$$$$$$$$$$$$$$$$$$$$$55555555555555555555333333333<;<;<;::33<33333355555",
"55555553333334;3::::33<333333355555555555555555555555$$$$$$$$$$$$$$$$$$$$$$$555555555555555555555533333334;3;<;<3<33333333555555",
"5555555533333333><33333333;<;5555555555555555555555555$$$$$$$$$$$$$$$$$$$$$55555555555555555555555553333;<;<33333333333355555555",
"55555555553333333333333<<;<<555555555555555555555555555$$$$$$$$$$$$$$$$$$5555555555555555555555555555<<;<<<;33333333333555555555",
"555555555555333333333:::<;5555555555555555555555555555555$$$$$$$$$$$$$$55555555555555555555555555555555;<;<;<3333333355555555555",
"555555555555553333><;:<5555555555555555555555555555555555555$$$$$$$$$5555555555555555555555555555555555555;<;<>33355555555555555",
"5555555555533555555555555X55555555555555555555555555555555555$$$$$$$5555555555555555555555555555555555X$555555555555335555555555",
"5555555555533333<<555$$X$$55555555555555555555555555555555555$$$$$$$5555555555555555555555555555555555$XX$$555553333335555555555",
"5555555555533333<3:55$$$$$55555555555555555555555555555555555$$$$$$$5555555555555555555555555555555555$$$$$X55:<3333335555555555",
"555555555553333333:55X$$$$$5555555555555555555555555555555555$$$$$$$5555555555555555555555555555555555$$$$X&5::<3333355555555555",
"555555555553333333;55$$$$$$5555555555555555555555555555555555$$$$$$$5555555555555555555555555555555555$$$$$55:333333355555555555",
"555555555553333333<55&X$$$$5555555555555555555555555555555555$$$$$$$555555555555555555555555555555555$$$$$X55;333333355555555555",
"5555555555553333333;55$$$$$5555555555555555555555555555555555$$$$$$$555555555555555555555555555555555$$$$$$55<333333355555555555",
"555555555555333333<:55X$$$$$555555555555555555555555555555555$$$$$$$555555555555555555555555555555555$$$$$&55;333333355555555555",
"5555555555553333333;55&$$$$$555555555555555555555555555555555$$$$$$$55555555555555555555555555555555$$$$$$55:<333333555555555555",
"5555555555553333333>;55$$$$$$55555555555555555555555555555555$$$$$$$55555555555555555555555555555555$$$$$X55;3333333555555555555",
"55555555555553333333<55$$$$$$55555555555555555555555555555555$$$$$$$55555555555555555555555555555555$$$$$X55;<333333555555555555",
"55555555555553333333:55$$$$$$55555555555555555555555555555555$$$$$$$5555555555555555555555555555555$$$$$X55:>3333333555555555555",
"55555555555553333333::55X$$$$$5555555555555555555555555555555$$$$$$$5555555555555555555555555555555$$$$$$55:<3333335555555555555",
"55555555555555333333<:55$X$$$$5555555555555555555555555555555$$$$$$$555555555555555555555555555555$$$$$X55;>33333335555555555555",
"555555555555553333333>;55$$$$$$555555555555555555555555555555$$$$$$$555555555555555555555555555555$$$$$$55:<33333335555555555555",
"555555555555553333333<:55X$$$$$$55555555555555555555555555555$$$$$$$55555555555555555555555555555$$$$$$555:<33333355555555555555",
"55555555555555533333333;55$$$$$$55555555555555555555555555555$$$$$$$5555555555555555555555555555$$$$$$&55;3333333355555555555555",
"5555555555555553333333<;55$$$$$$$5555555555555555555555555555$$$$$$$5555555555555555555555555555$$$$$$55533333333555555555555555",
"55555555555555553333333>:55$$$$$$$555555555555555555555555555$$$$$$$555555555555555555555555555$$$$$$$55<;3333333555555555555555",
"555555555555555533333333:55&o$$$$$555555555555555555555555555$$$$$$$55555555555555555555555555$$$$$$$55;3<3333335555555555555555",
"555555555555555553333333>:55$$$$$$$55555555555555555555555555$$$$$$$5555555555555555555555555$$$$$$$555<333333335555555555555555",
"555555555555555553333333<<:55$$$$$$$5555555555555555555555555$$$$$$$5555555555555555555555555$$$$$$X55<;333333355555555555555555",
"555555555555555555333333<3;555$X$$$$$555555555555555555555555$$$$$$$555555555555555555555555$$$$$$$55;33333333355555555555555555",
"55555555555555555533333333<;55$$$$$$$$55555555555555555555555$$$$$$$55555555555555555555555$$$$$$$555<33333333555555555555555555",
"555555555555555555533333333<:55$o$$$$$$5555555555555555555555$$$$$$$555555555555555555555$$$$$$$$555<><<333333555555555555555555",
"555555555555555555553333333><<55XoX$$$$$555555555555555555555$$$$$$$55555555555555555555$$$$$$Xo555:<<33333335555555555555555555",
"5555555555555555555533333333:<;55$o$$$$$$$55555555555555555$$$$$$$$$$$55555555555555555$$$$$$$$555:<3333333355555555555555555555",
"5555555555555555555553333333<><555X$$$$$$$$55555555555555$$$$$$$$$$$$$$$5555555555555$$$$$$$$$555:<>3333333555555555555555555555",
"555555555555555555555533333333><555$oX$$$$$$$5555555555$$$$$$$$$$$$$$$$$$$5555555555$$$$$$$X$555;<>33333333555555555555555555555",
"5555555555555555555555533333333><:55$$$$$$$$$$5555555$$$$$$$$$$$$$$$$$$$$$$5555555$$$$$$$$$$555:<>333333335555555555555555555555",
"5555555555555555555555533333333<><:555X$$$$$$$$$$555$$$$$$$$$$$$$$$$$$$$$$$$5555$$$$$$$$X$$555:<<3333333355555555555555555555555",
"5555555555555555555555553333333<<:<:555$$X$$$$$$$55$$$$$$$$$$XX$&XX$X$$$$$$$$55$$$$$$$$$$5555<:<33333333555555555555555555555555",
"55555555555555555555555553333333333<;5555$$$$$$$$55$$$$$$$X$555555555$$X$$$$$$55$$$$$$$$555;<>3333333335555555555555555555555555",
"555555555555555555555555553333333333<<:555X$$$$$55$$$$$$$$55555:::5555$$$$$$$$$5$$$$$$5555<<>33333333355555555555555555555555555",
"55555555555555555555555555533333333333<;5555$X$$5$$$$$X$$555::::::::5555X$$$$$$55$$XX555;<3>333333333555555555555555555555555555",
"5555555555555555555555555555333333333333<:5555$55$$$$X$$55;;<:<<<:5555555$$$$$$$55$5555;<:33333333335555555555555555555555555555",
"5555555555555555555555555555533333333333><>;5555$$$$$$X55:<>3333555555555$X$$$$$55555;<3<333333333355555555555555555555555555555",
"5555555555555555555555555555555333333333<<>3:;55X$$$$$$5;;:<33355555555555$$$$$$$55<33<33333333333555555555555555555555555555555",
"5555555555555555555555555555555533333333<333<:55$X$$$$55<<3333555555555555oX$$$X$55:33333333333335555555555555555555555555555555",
"55555555555555555555555555555555533333333333>;55$$$$X$55;553355555555555555$$$$$$55:33333333333555555555555555555555555555555555",
"55555555555555555555555555555555555333333333::5 X$$$X555>55<355355555555555$X$$$X55:<;<33333335555555555555555555555555555555555",
"5555555555555555555555555555555555553333333<::5 $$$$$5555555555555555555555$$$$$$55:<<333333555555555555555555555555555555555555",
"555555555555555555555555555555555555553333<;::5$X$$$X555555<533555555555555oX$$$X55:33333355555555555555555555555555555555555555",
"555555555555555555555555555555555555555533;<::5oo$$$$555555<33355<<55555555 $$$$$55:33335555555555555555555555555555555555555555",
"55555555555555555555555555555555555555555533::5oX$$$$5555555555555335555555$$$$$$55<33555555555555555555555555555555555555555555",
"55555555555555555555555555555555555555555555::55$$$$$o555555555533555555555$$$$$$55;55555555555555555555555555555555555555555555",
"555555555555555555555555555555555555555555555555X$$$$X555555553333335555555$$$$$$55555555555555555555555555555555555555555555555",
"555555555555555555555555555555555555555555555555o$$$$$55555555333333555555$X$$$$$55555555555555555555555555555555555555555555555",
"555555555555555555555555555555555555555555555555$$$$$X$5555555;<3333555555$X$$$$555555555555555555555555555555555555555555555555",
"5555555555555555555555555555555555555555555555555$$$$$Xo55555555553555;55$$$$$$$555555555555555555555555555555555555555555555555",
"5555555555555555555555555555555555555555555555555$$$$$ X$555555555555:55$$X$$$$5555555555555555555555555555555555555555555555555",
"55555555555555555555555555555555555555555555555555$$$$X$$$5555555555555$$$$$$$$5555555555555555555555555555555555555555555555555",
"55555555555555555555555555555555555555555555555555$$$$$$o$$5555555555oXo$$$$$$55555555555555555555555555555555555555555555555555",
"555555555555555555555555555555555555555555555555555$$$$$$$$$oo55555$$$o$$$$$$555555555555555555555555555555555555555555555555555",
"5555555555555555555555555555555555555555555555555555$$$$$$$$$XX$$$$$X$$$$$$$$555555555555555555555555555555555555555555555555555",
"55555555555555555555555555555555555555555555555555555$$$$$$$$$$$$$$$$$$$$$$$5555555555555555555555555555555555555555555555555555",
"555555555555555555555555555555555555555555555555555555$$$$$$$$$$$$$$$$$$$$555555555555555555555555555555555555555555555555555555",
"55555555555555555555555555555555555555555555555555555555$$$$$$$$$$$$$$$$$5555555555555555555555555555555555555555555555555555555",
"5555555555555555555555555555555555555555555555555555555555$$$$$$$$$$$$$555555555555555555555555555555555555555555555555555555555",
"5555555555555555555555555555555555555555555555555555555555555$$$$$$5555555555555555555555555555555555555555555555555555555555555",
"55555555555555555555555555555555555555555555555555555555555555555555555555555555555555555555555555555555555555555555555555555555",
"55555555555555555555555555555555555555555555555555555555555555555555555555555555555555555555555555555555555555555555555555555555",
"55555555555555555555555555555555555555555555555555555555555555555555555555555555555555555555555555555555555555555555555555555555",
"55555555555555555555555555555555555555555555555555555555555555555555555555555555555555555555555555555555555555555555555555555555"
};
