/* XPM */
static char *_515189869193[] = {
/* columns rows colors chars-per-pixel */
"64 64 46 1 ",
"  c #3F393C",
". c #3E3A3C",
"X c #3F3A3C",
"o c #3E3B3C",
"O c #3B3F3D",
"+ c #3D3C3C",
"@ c #3D3D3C",
"# c gray24",
"$ c #3E3C3C",
"% c #3C3E3D",
"& c #3D3E3D",
"* c #3C3F3D",
"= c #45313B",
"- c #44313C",
"; c #42343C",
": c #43343C",
"> c #42353C",
", c #41363C",
"< c #40373C",
"1 c #41373C",
"2 c #40383C",
"3 c #40393C",
"4 c #3B403D",
"5 c #0E8642",
"6 c #0F8642",
"7 c #0E8742",
"8 c #0E8743",
"9 c #0B8B43",
"0 c #0D8843",
"q c #0C8943",
"w c #0D8943",
"e c #0E8843",
"r c #0C8A43",
"t c #0C8B43",
"y c #0A8C43",
"u c #0B8C43",
"i c #0A8D43",
"p c #098E43",
"a c #098F43",
"s c #0A8E43",
"d c #108442",
"f c #079143",
"g c #069544",
"h c #089043",
"j c #089143",
"k c None",
/* pixels */
"kkkkkkkkkkkkkkkkkkkkkkkkkkkkkkkkkkkkkkkkkkkkkkkkkkkkkkkkkkkkkkkk",
"kkkkkkkkkkkkkkkkkkkkkkkkkkkkkkkkkkkkkkkkkkkkkkkkkkkkkkkkkkkkkkkk",
"kkkkkkkkkkkkkkkkkkkkkkkkkkkkkkkkkkkkkkkkkkkkkkkkkkkkkkkkkkkkkkkk",
"kkkkkkkkkkkkkkkkkkkkkkkkkk&&&&&&&&&&&&kkkkkkkkkkkkkkkkkkkkkkkkkk",
"kkkkkkkkkkkkkkkkkkkkkkk&&&&&&&&&&&&&&&&&&kkkkkkkkkkkkkkkkkkkkkkk",
"kkkkkkkkkkkkkkkkkkkk&&&&&&&%%%&&%%%&&%&&&&&&kkkkkkkkkkkkkkkkkkkk",
"kkkkkkkkkkkkkkkkkkk&&&%&&&%&&oo3  o&%&%%%&&&&&kkkkkkkkkkkkkkkkkk",
"kkkkkkkkkkkkkkkkk&&&&&&&& kkkkkkkkkkkk,&%&&&&&&kkkkkkkkkkkkkkkkk",
"kkkkkkkkkkkkkkkk&&%@%%&kkkku00077700tjkkko&&&%&&&kkkkkkkkkkkkkkk",
"kkkkkkkkkkkkkk&&&&&%&kkk077e07777777777ejkko%%@%&&kkkkkkkkkkkkkk",
"kkkkkkkkkkkkk&&&&%4:kk0700ee0e00k000e88777akk&%&&&&kkkkkkkkkkkkk",
"kkkkkkkkkkkk&&%&%&kk0770dekkkkkkkkkkkke78777kko&&%&&kkkkkkkkkkkk",
"kkkkkkkkkkkk&%&%&kk7e000kkkkkkkkkkkkkkkkk8e77qko%@&&%kkkkkkkkkkk",
"kkkkkkkkkkk&&%%@ka770ekkkkkkkkkkkkkkkkkkkke8e7ek+&o&&&kkkkkkkkkk",
"kkkkkkkkkkkk,&%ka7edkkkkkkkkkkkkkkkkkkkkkkkkee7qko% :kkkkkkkkkkk",
"kkkkkk0007shkkks7eekkkkkkkkkk&&&&&&kkkkkkkkkk8e70kkkhs0000kkkkkk",
"kkkk88e777777sk778kkkkkkkkk&&&&&&&&&&kkkkkkkkk8e0ks07777777ekkkk",
"kkk8e77qss00777k7kkkkkkkkk&&&&&&&&&&&&kkkkkkkkk8k700709s97708kkk",
"kk7e7eakkkkk7707kkkkkkkkk&&&&&kkkk&&&&&kkkkkkkkk7070skkkk007e8kk",
"kk87edk3+&kkk0708kkkkkkkk&%&kkkkkkkk&4%&kkkkkkke070kk+&&kkk07eek",
"ke87qkkkkk&kkk07ekkkkkkk&&&&kkkkkkkkkkkkkkkkkkke77k-%%kkkkkke7ek",
"ke7qko&kkkk&%:s07ekkkkkk%%%kkkkkkkkkkkkkkkkkkkee7sk&%&&kkkkkq7ek",
"ke7ak%%kkk&&%ok07eee87kk%%&k788eeeee77777e8eeee87h:4kkkkkkkke78k",
"k87a3%&&k&&&&ok07eeee7kk&&ok77eeeeeeeeeeeeeeeee77k:4kkkkk44:k77e",
"ke7ak&&%&&k&%ok97eeee7kk&%&k778eee8e77777e8eeee87sk%&kkkk&%:f77k",
"ke7eko%@%&kk4:s77ekkkkkk%%&kkkkkkkkkkkkkkkkkkkke7sk&%&kk&&&ks00k",
"kee7sk&&%&kk3kq7ekkkkkkk&&&%kkkkkkkkkkkkkkkkkkke77k=%%kk%%-k770k",
"kke77kko+&k:ks0e8kkkkkkkk&%&kkkkkkkk4%%&kkkkkkke770kkoo&okk0700k",
"kk8e77skkkkka7e8kkkkkkkkk&&&&&kkkk&&&&&kkkkkkkkk8e7ehkkkkje708kk",
"kkk8e70es9q778ekkkkkkkkkkk&&&&&&&&&&&&kkkkkkkkkkk8e77eaee77e7kkk",
"kkkke8e777777ekkkkkkkkkkkkk&&&&&&&&&&kkkkkkkkkkkkkq877777eeekkkk",
"kkkkkkee779hkkkkkkkkkkkkkkkkk&&&&&&kkkkkkkkkkkkkkkkkhae8eekkkkkk",
"kkkkkeekkkkk:kkkkkkkkkkkkkkkkk&&&&kkkkkkkkkkkkkkkkk::kkkkeekkkkk",
"kkkkkee87kk44kkkkkkkkkkkkkkkkk&&&&kkkkkkkkkkkkkkkkk4%ok77eekkkkk",
"kkkkkkee7sk&%&kkkkkkkkkkkkkkkk&&&&kkkkkkkkkkkkkkkkk&%:k78eekkkkk",
"kkkkkkee79k&%&kkkkkkkkkkkkkkkk&&&&kkkkkkkkkkkkkkkk&&&kj7eekkkkkk",
"kkkkkkee77k3%%kkkkkkkkkkkkkkkk&&&&kkkkkkkkkkkkkkkk&%@kq7eekkkkkk",
"kkkkkkee77kk%%&kkkkkkkkkkkkkkk&&&&kkkkkkkkkkkkkkkk%%3k77eekkkkkk",
"kkkkkkke87ek&&&kkkkkkkkkkkkkkk&&&&kkkkkkkkkkkkkkk&%&ks77eekkkkkk",
"kkkkkkkee87kk%&&kkkkkkkkkkkkkk&&&&kkkkkkkkkkkkkkk&%&k077ekkkkkkk",
"kkkkkkkee87qk&%%kkkkkkkkkkkkkk&&&&kkkkkkkkkkkkkk%&&ka7eeekkkkkkk",
"kkkkkkkkeee7kk%&&kkkkkkkkkkkkk&&&&kkkkkkkkkkkkk&&&ok778ekkkkkkkk",
"kkkkkkkkee877ko&&%kkkkkkkkkkkk&&&&kkkkkkkkkkkk&&%%ke7eeekkkkkkkk",
"kkkkkkkkkeee70k&%@&kkkkkkkkkkk&&&&kkkkkkkkkkkk%&&kk7e8ekkkkkkkkk",
"kkkkkkkkkke887ak%%@&kkkkkkkkkk&&&&kkkkkkkkkk&&&%kk778eekkkkkkkkk",
"kkkkkkkkkkee887kk%%@&kkkkkkkk&&&&&&&kkkkkkk%&&&kk77eeekkkkkkkkkk",
"kkkkkkkkkkkee8e7kk&&@%&kkkk&&&&&&%%&&kkkkk&&%%kk77eeekkkkkkkkkkk",
"kkkkkkkkkkkkee777sk+%%&&kk&&&&&3:&&%&&kk&&%%okk77e8ekkkkkkkkkkkk",
"kkkkkkkkkkkkkee8e7qkk&&%k&&%&kkkkkk&%@&k%%&kka7eq8ekkkkkkkkkkkkk",
"kkkkkkkkkkkkkkee8e77kkkkk&%@kk007kkk@%&@k:kke7888ekkkkkkkkkkkkkk",
"kkkkkkkkkkkkkkkee8e77ekk&&%kgd0dkkkkk&%%kkq77e8eekkkkkkkkkkkkkkk",
"kkkkkkkkkkkkkkkkeee877qk+&ok0e0kkkkkk+%%kh7e8eeekkkkkkkkkkkkkkkk",
"kkkkkkkkkkkkkkkkkkee77sk+&okkkkkkkkkkk&%:k07eekkkkkkkkkkkkkkkkkk",
"kkkkkkkkkkkkkkkkkkkk87sk+&&kkk00kkkkkk+&:k77ekkkkkkkkkkkkkkkkkkk",
"kkkkkkkkkkkkkkkkkkkkkksk+%+kkkkkeekkkk&&:k7kkkkkkkkkkkkkkkkkkkkk",
"kkkkkkkkkkkkkkkkkkkkkkkk+&+kkkk0e7kkko&&kkkkkkkkkkkkkkkkkkkkkkkk",
"kkkkkkkkkkkkkkkkkkkkkkkk%%@@kkkkkdkkk@&%kkkkkkkkkkkkkkkkkkkkkkkk",
"kkkkkkkkkkkkkkkkkkkkkkkkk&%@%kkkkkkk&&@&kkkkkkkkkkkkkkkkkkkkkkkk",
"kkkkkkkkkkkkkkkkkkkkkkkkk&@%&@kkkk&+%&%kkkkkkkkkkkkkkkkkkkkkkkkk",
"kkkkkkkkkkkkkkkkkkkkkkkkkk%@%&+&&o&&@&kkkkkkkkkkkkkkkkkkkkkkkkkk",
"kkkkkkkkkkkkkkkkkkkkkkkkkkkk&&&%%%&&&kkkkkkkkkkkkkkkkkkkkkkkkkkk",
"kkkkkkkkkkkkkkkkkkkkkkkkkkkkkk&&&&&kkkkkkkkkkkkkkkkkkkkkkkkkkkkk",
"kkkkkkkkkkkkkkkkkkkkkkkkkkkkkkkkkkkkkkkkkkkkkkkkkkkkkkkkkkkkkkkk",
"kkkkkkkkkkkkkkkkkkkkkkkkkkkkkkkkkkkkkkkkkkkkkkkkkkkkkkkkkkkkkkkk"
};
