/* XPM */
static char *_515189848845[] = {
/* columns rows colors chars-per-pixel */
"32 32 67 1 ",
"  c #3F393C",
". c #3E3A3C",
"X c #3F3A3C",
"o c #3E3B3C",
"O c #3B3F3D",
"+ c #3D3C3C",
"@ c #3D3D3C",
"# c gray24",
"$ c #3E3C3C",
"% c #3C3E3D",
"& c #3D3E3D",
"* c #3C3F3D",
"= c #42343C",
"- c #42353C",
"; c #41363C",
": c #40373C",
"> c #41373C",
", c #42363C",
"< c #40383C",
"1 c #40393C",
"2 c #37463D",
"3 c #36473D",
"4 c #3B403D",
"5 c #3A413D",
"6 c #3B413D",
"7 c #3A423D",
"8 c #39443D",
"9 c #36483D",
"0 c #36493D",
"q c #344B3E",
"w c #2F533E",
"e c #275F3F",
"r c #285E3F",
"t c #31503E",
"y c #30513E",
"u c #25623F",
"i c #1B7241",
"p c #1C7141",
"a c #1A7441",
"s c #197641",
"d c #167A41",
"f c #137F42",
"g c #147D42",
"h c #206B40",
"j c #0F8542",
"k c #0E8642",
"l c #0F8642",
"z c #0E8742",
"x c #0B8B43",
"c c #0D8843",
"v c #0C8943",
"b c #0D8943",
"n c #0C8A43",
"m c #0C8B43",
"M c #0A8C43",
"N c #0B8C43",
"B c #0A8D43",
"V c #098E43",
"C c #088F43",
"Z c #098F43",
"A c #0A8E43",
"S c #118242",
"D c #108442",
"F c #069343",
"G c #089043",
"H c #089143",
"J c None",
/* pixels */
"JJJJJJJJJJJJJJJJJJJJJJJJJJJJJJJJ",
"JJJJJJJJJJJJJJJ%%JJJJJJJJJJJJJJJ",
"JJJJJJJJJJJ%%%%@X@%%%JJJJJJJJJJJ",
"JJJJJJJJJ%%o<<8yy0X><%%JJJJJJJJJ",
"JJJJJJJJ%%>JSNNNNNNzJ,%%%JJJJJJJ",
"JJJJJJ%%o6cNczJJJJzcNNJo%%JJJJJJ",
"JJJJJJ%1JGcJJJJJJJJJJzNJ1@,JJJJJ",
"JJJJcp3JGDJJJJJ%6JJJJJzNJ6hDJJJJ",
"JJzcxNNNzJJJJ%%%%%6JJJJzcNGNccJJ",
"JzNe6JGzJJJJ%%JJJJ<oJJJJcmw6JzcJ",
"JNJJJJJccJJJ%%JJJJJJJJJzN31JJJzc",
"cc%%J6<gczxJoJNzzzccczzcc@JJJ,zc",
"DN6@6J,SczNJoJJDDcGNcczzxo%J%oxz",
"Jcd><JuczJJJ%%JJJJ,<JJJJcp,,,icJ",
"JcccsSczJJJJJ%%%6%%JJJJJzczpzccJ",
"JJJccNzJJJJJJJ%%%%JJJJJJJzxNczJJ",
"JJJzJ%<JJJJJJJJ1%JJJJJJJJJ1JzJJJ",
"JJJzN%%JJJJJJJJ%%JJJJJJJJ6%NzJJJ",
"JJJzNJXJJJJJJJJ6%JJJJJJJJ%0NzJJJ",
"JJJzcc>%JJJJJJJ1%JJJJJJJ6,JczJJJ",
"JJJJzNJ%JJJJJJJ%1JJJJJJJ%6NzJJJJ",
"JJJJcDN<6JJJJJJ%6JJJJJJ%>cczJJJJ",
"JJJJJcbD-6JJJJJ%%JJJJJ%-JczJJJJJ",
"JJJJJJcbb<16J%%,1%6J%%,JccJJJJJJ",
"JJJJJJJzcGJ<6%yDJJ%%@0NccJJJJJJJ",
"JJJJJJJJccmJ18FcJJ0<JGccJJJJJJJJ",
"JJJJJJJJJDms>JJJJJJ<ucDJJJJJJJJJ",
"JJJJJJJJJJJJ10JJDJJ%JJJJJJJJJJJJ",
"JJJJJJJJJJJJ1%JJJJ%%JJJJJJJJJJJJ",
"JJJJJJJJJJJJJ%%6%%%JJJJJJJJJJJJJ",
"JJJJJJJJJJJJJJ%@%1JJJJJJJJJJJJJJ",
"JJJJJJJJJJJJJJJJJJJJJJJJJJJJJJJJ"
};
