<?xml version="1.0" encoding="utf-8"?>
<svg version="1.0" xmlns="http://www.w3.org/2000/svg" width="1000pt" height="640pt" viewBox="0 0 1000 640" preserveAspectRatio="xMidYMid meet">
        <!-- kate: space-indent off;
        Copyright (c) 2017 The Terracoin Core developers
        Distributed under the MIT software license, see the accompanying
        file COPYING or http://www.opensource.org/licenses/mit-license.php.
        -->
        <style type="text/css"><![CDATA[
		.st1{opacity:0.5;}
		.st2{fill:none;}
		.st3{fill:#0C8743;}
		.st4{fill:#3D3D3D;}
		.st5{fill:#231F20;stroke:#FFFFFF;stroke-width:5;stroke-linejoin:round;stroke-miterlimit:10;}
        ]]></style>
<g id="Layer_2" class="st1">
	<circle class="st2" cx="500.1" cy="414.9" r="41.1"/>
	<path class="st3" d="M427,194.1c0-4.6,0.4-9.1,1.3-13.5h-35.9c-6.2-28.2-31.3-49.3-61.3-49.3c-34.7,0-62.8,28.1-62.8,62.8
		s28.1,62.8,62.8,62.8c30.1,0,55.2-21.1,61.3-49.3h35.9C427.5,203.2,427,198.7,427,194.1z M331.1,235.3c-22.7,0-41.1-18.4-41.1-41.1
		c0-22.7,18.4-41.1,41.1-41.1s41.1,18.4,41.1,41.1C372.2,216.9,353.8,235.3,331.1,235.3z"/>
	<path class="st3" d="M669.1,131.3c-30.1,0-55.2,21.1-61.3,49.3h-35.9h-44h-55.6c-2,4.1-3.1,8.6-3.1,13.5s1.1,9.4,3.1,13.5h55.6h44
		h35.9c6.2,28.2,31.3,49.3,61.3,49.3c34.7,0,62.8-28.1,62.8-62.8S703.8,131.3,669.1,131.3z M669.1,235.3
		c-22.7,0-41.1-18.4-41.1-41.1c0-22.7,18.4-41.1,41.1-41.1c22.7,0,41.1,18.4,41.1,41.1C710.3,216.9,691.9,235.3,669.1,235.3z"/>
	<path class="st4" d="M513.6,353.6v-28v-36.5v-33.6c20.3-4.4,37-18.7,44.7-37.6h-24.6c-7.4,10.5-19.7,17.4-33.6,17.4
		c-22.7,0-41.1-18.4-41.1-41.1s18.4-41.1,41.1-41.1c13.9,0,26.1,6.9,33.6,17.4h24.6c-9.4-22.9-31.9-39.1-58.2-39.1
		c-34.7,0-62.8,28.1-62.8,62.8c0,30.1,21.1,55.2,49.3,61.3v33.6v36.5v28c-28.2,6.2-49.3,31.3-49.3,61.3c0,34.7,28.1,62.8,62.8,62.8
		s62.8-28.1,62.8-62.8C562.9,384.9,541.8,359.8,513.6,353.6z M500.1,456.1c-22.7,0-41.1-18.4-41.1-41.1s18.4-41.1,41.1-41.1
		c22.7,0,41.1,18.4,41.1,41.1S522.8,456.1,500.1,456.1z"/>
	<g>
		<path class="st4" d="M360.7,174.3l-1.1,0.3l-5.7,0.5l-1.6,2.6l-1.2-0.4l-4.5-4.1l-0.7-2.1l-0.9-2.3l-2.8-2.5l-3.4-0.7l-0.1,1.5
			l3.3,3.2l1.6,1.9l-1.8,0.9l-1.5-0.4l-2.2-0.9l0.1-1.8l-2.9-1.2l-1,4.2l-2.9,0.7l0.3,2.3l3.8,0.7l0.7-3.7l3.1,0.5l1.5,0.9h2.3
			l1.6,3.2l4.2,4.3l-0.3,1.7l-3.4-0.4l-5.9,3l-4.3,5.1l-0.6,2.3h-1.5l-2.8-1.3l-2.8,1.3l0.7,2.9l1.2-1.4l2.1-0.1l-0.2,2.6l1.8,0.5
			l1.8,2l2.9-0.8l3.3,0.5l3.8,1l1.9,0.2l3.2,3.6l6.2,3.7l-4,7.7l-4.2,2l-1.6,4.4l-6.1,4.1l-0.7,2.4c15.7-3.8,27.3-17.8,27.3-34.7
			C366.7,186.8,364.5,180,360.7,174.3L360.7,174.3z M360.7,174.3"/>
		<path class="st4" d="M335.2,212.8l-2.6-4.8l2.4-5l-2.4-0.7l-2.7-2.7l-5.9-1.3l-2-4.1v2.5h-0.9l-5.1-6.9V184l-3.8-6.1l-6,1.1h-4
			l-2-1.3l2.6-2l-2.6,0.6c-3.1,5.3-4.9,11.4-4.9,18c0,19.7,16,35.7,35.7,35.7c1.5,0,3-0.1,4.5-0.3l-0.4-4.3c0,0,1.6-6.4,1.6-6.6
			C336.8,218.3,335.2,212.8,335.2,212.8L335.2,212.8z M335.2,212.8"/>
		<path class="st4" d="M308.6,170l6.3-0.9l2.9-1.6l3.3,1l5.2-0.3l1.8-2.8l2.6,0.4l6.4-0.6l1.8-1.9l2.5-1.7l3.5,0.5l1.3-0.2
			c-4.6-2.2-9.8-3.4-15.2-3.4c-11.1,0-21,5-27.5,13h0L308.6,170z M332.6,162l3.6-2l2.3,1.4l-3.4,2.6l-3.2,0.3l-1.5-1L332.6,162z
			 M321.8,162.3l1.6,0.7l2.1-0.7l1.1,2l-4.9,1.3l-2.3-1.4C319.4,164.2,321.7,162.7,321.8,162.3L321.8,162.3z M321.8,162.3"/>
	</g>
	<path class="st4" d="M500.1,70.4c54.2,0,102.6,25.5,133.8,65.2c8.4-5.2,18.1-8.7,28.4-9.9c-36-50.8-95.3-84-162.2-84
		c-66.8,0-126.1,33.2-162.1,83.9c10.4,1,20.1,4.4,28.7,9.6C397.8,95.8,446.1,70.4,500.1,70.4z"/>
	<path class="st3" d="M434.5,397.2c-54.6-22.9-94.8-73.6-102.9-134.3c-0.2,0-0.4,0-0.6,0c-10.4,0-20.2-2.3-29-6.4
		c6.4,79.1,59.3,145.2,131.3,170.9c-0.8-4.1-1.2-8.3-1.2-12.6C432.2,408.8,433,402.9,434.5,397.2z"/>
	<path class="st3" d="M668.6,262.9c-8,60.1-47.5,110.3-101.2,133.6c1.6,5.9,2.5,12.1,2.5,18.4c0,4-0.4,8-1,11.9
		c70.8-26.2,122.7-91.6,129.2-169.8c-8.6,3.8-18,5.9-28,5.9C669.6,263,669.1,262.9,668.6,262.9z"/>
	<path class="st2" d="M488.4,382.2c3.9,0.3,7.8,0.5,11.7,0.5c3.9,0,7.8-0.2,11.6-0.5c-3.7-1.3-7.6-2-11.7-2
		C496,380.2,492.1,380.9,488.4,382.2z"/>
	<path class="st2" d="M365.8,193.2c-2.2,6.3-4,12.7-5.3,19.3c3.4-5.3,5.3-11.7,5.3-18.4C365.8,193.8,365.8,193.5,365.8,193.2z"/>
	<path class="st2" d="M634.4,194.1c0,6.8,2,13.2,5.4,18.6c-1.3-6.7-3.1-13.3-5.4-19.7C634.4,193.4,634.4,193.8,634.4,194.1z"/>
	<path class="st2" d="M331.1,159.4c-19.1,0-34.7,15.6-34.7,34.7c0,19.1,15.6,34.7,34.7,34.7c2.5,0,4.9-0.3,7.2-0.8
		c1.6-21.2,7.3-41.3,16.3-59.5C348.4,162.9,340.1,159.4,331.1,159.4z"/>
	<path class="st4" d="M554.3,372c4.2,5.2,7.6,11.1,10.1,17.3c51-22.1,88.6-69.6,96.5-126.5c-6.8-0.8-13.3-2.7-19.4-5.3
		C635.2,309.4,601,352.8,554.3,372z"/>
	<path class="st3" d="M387.2,153.8c26.1-33.9,67-55.8,113-55.8c45.9,0,86.9,21.9,112.9,55.8c4-5.5,8.7-10.3,14-14.4
		C597.3,102,551.5,78,500.1,78c-51.3,0-97.2,24-127,61.3C378.5,143.5,383.2,148.3,387.2,153.8z"/>
	<path class="st4" d="M358.8,257.5c-6.1,2.7-12.6,4.5-19.4,5.4c7.9,56.9,45.4,104.4,96.5,126.5c2.5-6.3,5.9-12.1,10.1-17.3
		C399.3,352.7,365,309.4,358.8,257.5z"/>
	<path class="st3" d="M316.6,532.7v13.2H299v61.7h-13.2v-61.7h-17.6v-13.2H316.6z"/>
	<path class="st3" d="M367.3,532.7v13.2h-28.6v17.6h24.2v13.2h-24.2v17.6h28.6v13.2h-41.9v-74.9H367.3z"/>
	<path class="st3" d="M400.3,532.7c16.2,0,24.2,8.1,24.2,24.2c0,10.3-3.3,17.3-9.8,21l9.8,29.7h-14.1l-8.7-26.4h-12.4v26.4h-13.2
		v-74.9H400.3z M400.3,567.9c7.3,0,11-3.7,11-11c0-7.3-3.7-11-11-11h-11v22H400.3z"/>
	<path class="st3" d="M457.6,532.7c16.2,0,24.2,8.1,24.2,24.2c0,10.3-3.3,17.3-9.8,21l9.8,29.7h-14.1l-8.7-26.4h-12.4v26.4h-13.2
		v-74.9H457.6z M457.6,567.9c7.3,0,11-3.7,11-11c0-7.3-3.7-11-11-11h-11v22H457.6z"/>
	<path class="st3" d="M523.3,532.7l19.8,74.9H529l-3.2-13.2h-22.3l-3.1,13.2h-14.1l19.4-74.9H523.3z M506.6,581.1h16.1l-8-33.9
		L506.6,581.1z"/>
	<path class="st4" d="M572.2,532.7c16.2,0,24.2,8.1,24.2,24.2h-13.2c0-7.3-3.7-11-11-11c-7.3,0-11,3.7-11,11v26.4
		c0,7.3,3.7,11,11,11c7.3,0,11-3.7,11-11h13.2c0,16.2-8.1,24.2-24.2,24.2c-16.2,0-24.2-8.1-24.2-24.2v-26.4
		C547.9,540.7,556,532.7,572.2,532.7z"/>
	<path class="st4" d="M629.5,532.7c16.2,0,24.2,8.1,24.2,24.2v26.4c0,16.2-8.1,24.2-24.2,24.2c-16.2,0-24.2-8.1-24.2-24.2v-26.4
		C605.2,540.7,613.3,532.7,629.5,532.7z M640.5,556.9c0-7.3-3.7-11-11-11c-7.3,0-11,3.7-11,11v26.4c0,7.3,3.7,11,11,11
		c7.3,0,11-3.7,11-11V556.9z"/>
	<path class="st4" d="M675.7,532.7v74.9h-13.2v-74.9H675.7z"/>
	<path class="st4" d="M697.8,532.7l22,46.3v-46.3H733v74.9h-13.2l-22-46.3v46.3h-13.2v-74.9H697.8z"/>
	<g>
		<path class="st4" d="M704,192.3c-0.1-0.1,0-0.2,0-0.3c0-0.7,0-1.5-0.1-2.2c-0.3-2.1-0.7-4.1-1.3-6.1c-0.9-2.9-2.1-5.6-3.7-8.1
			c-1.4-2.3-3.1-4.3-5-6.2c-0.6-0.6-1.2-1.2-1.9-1.7c-2-1.7-4.1-3.1-6.4-4.4c-2.1-1.1-4.3-2-6.6-2.7c-0.3-0.1-0.7-0.2-1-0.3
			c0,0-0.1,0-0.1,0c-2-0.5-4.1-0.9-6.2-1c-0.4,0-0.8,0-1.2,0c-0.8,0-1.7,0-2.5,0c-0.1,0.1-0.1,0-0.2,0c-0.8,0-1.6,0-2.4,0.1
			c-0.8,0.1-1.5,0.2-2.3,0.3c0,0,0,0-0.1,0c-0.9,0.2-1.7,0.3-2.5,0.6c-3,0.8-5.8,1.9-8.4,3.4c-0.5,0.3-0.9,0.5-1.4,0.8
			c0,0,0,0-0.1,0c0,0-0.1,0.1-0.1,0.1c-0.1,0-0.1,0.1-0.2,0.1c-0.1,0-0.1,0.1-0.2,0.1c-0.2,0.2-0.5,0.3-0.7,0.5
			c-1.5,1-2.9,2.2-4.2,3.4c-1,0.9-1.9,1.9-2.8,3c-2.1,2.5-3.8,5.3-5.2,8.3c-1.1,2.5-1.9,5.1-2.4,7.8c-0.3,1.4-0.5,2.9-0.5,4.4
			c0,0,0,0.1,0,0.1c0.1-1.2,0.2-2.5,0.4-3.7c0,0,0-0.1,0-0.1c0,0,0-0.1,0.1-0.1c0,0,0.1,0,0.1,0c0,0,0,0.1,0,0.1
			c-0.1,0.3,0,0.6-0.1,1c0,0,0,0.1,0,0.1c-0.1,0.3-0.1,0.6,0,0.9c0,0.4,0,0.9,0,1.3c0,0.1,0,0.3,0,0.4c0,0.1,0,0.2,0.1,0.3
			c0.3,0.3,0.3,0.8,0.4,1.2c0.1,0.5,0.1,1,0.1,1.4c0,0.3,0,0.6,0.1,0.9c0.1,0.2-0.1,0.4-0.1,0.7c-0.1,0.1-0.2,0.3-0.2,0.5
			c0,0.1,0,0.2-0.1,0.2c-0.1,0-0.1,0.1-0.1,0.1c0.1,0.1,0.1,0,0.1,0c0.1,0,0.1-0.1,0.1-0.2c0-0.1,0-0.1,0.1-0.2
			c0.1,0,0.1,0.1,0.2,0.1c0.2,0.2,0.2,0.4,0.1,0.6c0,0.1-0.1,0.2-0.2,0.2c0,0.1,0.1,0.1,0.1,0.2c0.1-0.1,0.2-0.2,0.2-0.4
			c0-0.1,0.1-0.1,0.2-0.1c0.1,0.1,0.1,0.1,0.1,0.2c0.1,0.3,0.2,0.5,0.4,0.8c0.1,0.2,0.1,0.4,0.1,0.6c0,0.1,0,0.2,0.2,0.2
			c0.1,0,0.2,0,0.2,0.1c0.1,0.2,0.3,0.5,0.6,0.6c0.1,0,0.2,0.2,0.2,0.2c0.2,0.3,0.3,0.5,0.5,0.8c0.1,0.2,0.2,0.5,0.4,0.7
			c0.1,0.1,0.2,0.2,0.3,0.3c0.2,0.1,0.3,0.2,0.3,0.4c0.1,0.5,0.3,1,0.3,1.5c0,0.4-0.1,0.8-0.3,1.2c-0.1,0.1-0.1,0.3-0.1,0.5
			c0,0.2,0,0.4-0.2,0.5c-0.1,0,0,0.2,0,0.3c0,0.2,0.1,0.4,0.1,0.6c0.2,0.5,0.3,1,0.4,1.4c0,0.1,0,0.2,0,0.3c0,0.1,0,0.2,0.1,0.4
			c0.1,0.2,0.1,0.5,0.1,0.7c0,0.2,0,0.4,0.1,0.6c0.1,0.1-0.1,0.2,0,0.4c-0.1,0-0.2-0.1-0.3-0.1c-0.1,0-0.1-0.2-0.2-0.1
			c-0.1,0.1-0.3,0.1-0.2,0.3c0,0.2,0.1,0.4,0.2,0.5c0.2,0.3,0.3,0.6,0.5,1c0.1,0.1,0.1,0.2,0.1,0.3c-0.1,0-0.1-0.1-0.2-0.2
			c-2.1-3.3-3.6-6.8-4.5-10.6c-0.4-1.5-0.6-3-0.8-4.6c-0.1-0.7-0.1-1.5-0.2-2.2c0,0,0,0,0,0c0,0.7,0,1.5,0.1,2.2
			c0.2,1.7,0.5,3.4,0.9,5.1c0.8,2.9,1.9,5.7,3.3,8.4c1.7,3,3.7,5.7,6.2,8.1c1.3,1.2,2.6,2.4,4,3.4c1.9,1.3,3.9,2.5,6,3.4
			c2.2,1,4.4,1.7,6.7,2.2c1.6,0.3,3.2,0.6,4.8,0.7c0.4,0,0.7,0,1.1,0.1c1.2,0,2.3,0,3.5,0c0.1-0.1,0.1,0,0.2,0
			c0.9,0,1.8-0.1,2.6-0.2c2.8-0.4,5.6-1.1,8.2-2.1c2.1-0.8,4.1-1.9,6.1-3.1c1.9-1.2,3.7-2.7,5.4-4.2c1.2-1.2,2.4-2.5,3.4-3.8
			c1.7-2.2,3.1-4.5,4.2-6.9c1-2.2,1.7-4.4,2.3-6.7c0.3-1.5,0.6-3,0.7-4.6c0-0.4,0-0.8,0-1.2C704,194.8,704,193.5,704,192.3z
			 M664.9,160.9c0.1,0,0,0.2-0.1,0.2c-0.2,0.1-0.3,0.2-0.6,0.2c-0.3-0.1-0.7,0-1-0.1c-0.2,0-0.4,0-0.6-0.1c-0.2-0.1-0.4,0.1-0.6,0.1
			c-0.1,0-0.2,0-0.3,0c-0.2,0-0.3-0.1-0.5,0c-0.1,0.1-0.2,0-0.3,0c0.2-0.1,0.2-0.3,0.4-0.3c0.1,0,0.2-0.1,0.1-0.2c0,0,0,0,0.1,0
			c0.1,0,0.1,0.1,0.2,0.1c0.3,0,0.6,0.1,0.8-0.2c0.1-0.1,0.2-0.1,0.3-0.1c0.1,0,0.2,0,0.3,0c0.3-0.1,0.7-0.1,1.1-0.1
			c0,0.1-0.1,0.1-0.2,0.1c-0.1,0-0.2,0-0.2,0.1l0,0c0,0,0,0,0,0c-0.1,0-0.2,0-0.3,0.1c-0.1,0-0.1,0-0.1,0.1c0,0.1,0,0.1,0.1,0.1
			c0.1,0,0.1,0,0.2,0c0,0-0.2,0-0.1-0.1c0.1,0,0.2,0,0.2-0.1c0.2,0.1,0.4,0,0.5-0.1C664.7,160.6,664.8,160.8,664.9,160.9z
			 M645.4,169.8c-0.1,0-0.1,0.1-0.2,0.2c-0.2,0.1-0.3,0.3-0.4,0.4c-0.1,0.1-0.1,0.2-0.1,0.4c0.2-0.1,0.3-0.2,0.5-0.3
			c-0.1,0.2-0.3,0.3-0.3,0.4c0,0,0,0.1-0.1,0.1c-0.2,0-0.4,0.1-0.5,0.1c-0.2,0-0.3,0-0.5,0.1c0,0-0.1,0-0.1,0
			c0.2-0.2,0.3-0.5,0.7-0.5c0.1,0,0-0.2,0.1-0.2c-0.4,0-0.7,0-1,0.3c-0.2,0.2-0.3,0.3-0.5,0.5c0,0.1-0.1,0.2-0.2,0
			c0-0.1-0.1,0-0.1,0c0,0.2-0.2,0.1-0.3,0.3c-0.1,0.1-0.2,0.2-0.3,0.3c0-0.1,0-0.1,0.1-0.2c1.6-1.9,3.4-3.6,5.4-5.2c0,0,0,0,0.1,0
			c0.1,0,0,0.1,0.1,0.1c0.4-0.2,0.7-0.5,1-0.7c0.3-0.2,0.5-0.3,0.8-0.4c0.4-0.1,0.8-0.4,1.2-0.7c0.3-0.2,0.6-0.4,0.9-0.5
			c0.4-0.1,0.7-0.4,1.1-0.5c0.1,0,0.2-0.1,0.3-0.1c-0.2,0.4-0.5,0.6-0.8,0.8c0,0,0,0-0.1,0c-0.3,0.4-0.7,0.5-1.1,0.8
			c-0.2,0.1-0.3,0.3-0.5,0.4c0.4,0.1,0.6-0.2,0.9-0.2c-0.2,0.2-0.5,0.4-0.7,0.5c-0.3,0.2-0.5,0.4-0.8,0.6c-0.1,0.1-0.3,0.1-0.4,0.3
			c-0.2,0.2-0.3,0.3-0.5,0.5c-0.1,0.1-0.1,0.3-0.2,0.4c0,0.1,0,0.1-0.1,0.2c-0.2,0.1-0.3,0.2-0.4,0.5c0,0,0,0,0,0.1
			c-0.3,0.3-0.5,0.5-0.9,0.7c0,0-0.1,0-0.1,0c-0.2-0.2-0.4,0-0.6,0c-0.2,0.1-0.3,0.1-0.3-0.2c0,0,0,0,0-0.1c0-0.1,0-0.3-0.1-0.4
			c-0.1-0.1-0.2,0.1-0.3,0.1c-0.2,0-0.4,0.1-0.6,0.3c0.1,0,0.3-0.1,0.4,0c0.1,0,0.1,0.1,0.1,0.1c-0.1,0.2-0.3,0.4-0.5,0.4
			c-0.1,0-0.1,0-0.1,0.1C645.7,169.7,645.5,169.7,645.4,169.8z M701.8,188.9c-0.1-0.3-0.2-0.6-0.3-1c-0.1-0.2-0.2-0.4-0.3-0.6
			c0.1,0.3,0,0.6,0,0.9c0,0.1,0,0.1-0.1,0.2c-0.1,0-0.2,0.1-0.2-0.1c0-0.1-0.1-0.3-0.1-0.4c0-0.3-0.2-0.6-0.3-0.9c0,0,0-0.1-0.1-0.1
			c-0.2-0.1-0.2-0.3-0.3-0.4c0-0.1-0.1-0.1-0.2-0.1c-0.1,0-0.2-0.2-0.3-0.3c-0.1-0.1-0.2-0.3-0.2-0.4c-0.1-0.2-0.2-0.4-0.3-0.5
			c-0.1,0.1-0.2,0.2-0.1,0.3c0.1,0.1,0,0.2-0.1,0.3c0,0,0,0.1-0.1,0.1c-0.1,0.2-0.1,0.4-0.4,0.4c-0.1,0-0.2,0.4-0.2,0.5
			c0,0.1,0.1,0.2,0.1,0.4c0,0.2,0.1,0.5-0.2,0.6c0,0,0,0,0,0.1c0,0.6-0.1,1.2-0.3,1.8c-0.1,0.1-0.1,0.3,0,0.4c0,0.1,0,0.3-0.1,0.4
			c-0.2,0.1,0,0.3-0.1,0.4c-0.2,0.1-0.2,0.2-0.2,0.3c0,0.1,0,0.3,0.1,0.4c0.1,0.3,0.1,0.6,0.3,0.9c0.1,0.2,0.1,0.4,0,0.5
			c0,0.2-0.1,0.5,0,0.7c0,0.1,0,0.2,0.1,0.3c0,0.1,0,0.2-0.1,0.2c0,0,0,0.1-0.1,0.1c-0.1,0.2,0,0.4-0.1,0.6
			c-0.1,0.2-0.2,0.4-0.2,0.6c0,0.1,0,0.1-0.1,0.2c-0.1,0.2-0.2,0.2-0.3,0c-0.2-0.2-0.3-0.4-0.3-0.6c-0.1-0.5-0.3-0.9-0.6-1.3
			c-0.2-0.2-0.3-0.5-0.3-0.7c-0.1-0.3-0.2-0.6-0.4-0.8c-0.2-0.3-0.4-0.6-0.5-0.9c-0.1-0.3-0.3-0.6-0.4-0.9c-0.1-0.3-0.2-0.6-0.3-0.9
			c0-0.1-0.1-0.2-0.1-0.3c0-0.2,0-0.4-0.2-0.5c0,0,0-0.1,0-0.1c-0.1-0.1,0.1-0.2-0.1-0.3c-0.1,0-0.1-0.2-0.1-0.3
			c-0.1,0.1-0.1,0.2,0,0.3c0.1,0.2,0.1,0.3,0,0.4c-0.1,0.1-0.1,0.2-0.2,0.3c-0.1,0.1-0.2,0.1-0.4,0c-0.3-0.2-0.5-0.4-0.8-0.7
			c0.2,0,0.3-0.1,0.4-0.1c0.1-0.1,0.1-0.2,0.1-0.3c0,0-0.1,0-0.1,0c-0.1,0.1-0.2,0.2-0.3,0.2c-0.2,0-0.3-0.1-0.4-0.2
			c-0.1-0.1-0.2-0.2-0.3-0.2c-0.2,0-0.3-0.1-0.3-0.2c-0.1-0.1-0.1-0.2-0.3-0.2c-0.1,0-0.1-0.1-0.1-0.1c-0.1-0.2-0.1-0.2-0.4-0.1
			c-0.2,0.1-0.3,0.1-0.5,0.2c0,0,0,0,0,0c-0.5,0-0.8,0.3-1.2,0.4c-0.1,0-0.2,0.1-0.4,0c-0.3-0.1-0.5,0-0.8,0c-0.3,0-0.5,0-0.8,0
			c-0.1,0-0.2-0.1-0.2-0.2c0-0.1-0.1-0.2-0.2-0.4c-0.1-0.2-0.3-0.3-0.5-0.1c-0.1,0-0.2,0.1-0.3,0.2c-0.1,0.1-0.3,0.2-0.5,0.2
			c-0.3,0-0.6-0.2-0.9-0.4c-0.1-0.1-0.3-0.1-0.4-0.1c-0.2,0-0.3-0.1-0.4-0.3c-0.2-0.3-0.5-0.6-0.7-0.9c-0.1-0.1-0.1-0.1-0.2,0
			c-0.1,0.1-0.2,0-0.4-0.1c0,0,0-0.1,0-0.1c0,0-0.1,0.1-0.1,0.1c0,0.1,0,0.2-0.2,0.2c0,0-0.1,0-0.1,0.1c0.1,0.2-0.1,0.2-0.2,0.3
			c0.2,0.1,0.3,0.4,0.5,0.6c0.2,0.3,0.5,0.6,0.8,0.8c0.2,0.1,0.3,0.3,0.2,0.5c0,0.1,0,0.1,0.1,0.2c0.1,0.1,0.2,0.3,0.4,0.5
			c0-0.2,0-0.4,0-0.6c0-0.1,0-0.2,0.1-0.2c0.1,0,0.2,0.1,0.2,0.1c0,0.2,0.2,0.4,0.1,0.7c0,0.1-0.1,0.2,0.1,0.3c0.1,0,0.1,0,0.1,0.1
			c0.1,0.1,0.1,0.1,0.2,0c0.2-0.2,0.5-0.1,0.8-0.2c0.1,0,0.2-0.1,0.2-0.2c0.1-0.3,0.2-0.5,0.4-0.7c0.1-0.2,0.2-0.4,0.3-0.6
			c0.1,0.2,0.1,0.4,0.2,0.6c0.2,0.5,0.4,0.8,1,0.8c0.3,0,0.5,0.1,0.6,0.3c0.1,0.1,0.2,0.2,0.3,0.2c0.1,0,0.1,0.1,0.1,0.2
			c0,0.1,0,0.3-0.1,0.4c-0.1,0.2-0.2,0.4-0.3,0.7c0,0-0.1,0.1-0.1,0.1c-0.2-0.1-0.2,0-0.2,0.1c0,0.2-0.1,0.4,0,0.6
			c0.1,0.2,0,0.2-0.1,0.3c-0.2,0.1-0.3,0.2-0.3,0.4c0,0.2-0.1,0.2-0.2,0.3c0,0-0.1,0-0.1,0.1c-0.1,0.1-0.2,0.2-0.2,0.3
			c0,0.2,0,0.3-0.3,0.3c-0.2,0-0.3,0.1-0.4,0.2c-0.1,0.1-0.3,0.2-0.4,0.3c-0.2,0.1-0.3,0.2-0.2,0.5c0,0.1,0,0.2-0.1,0.2
			c-0.1,0.1-0.3,0.2-0.5,0.3c-0.2,0.1-0.5,0.2-0.7,0.4c-0.2,0.1-0.3,0.2-0.4,0.3c-0.1,0.2-0.2,0.2-0.4,0.2c-0.1,0-0.2,0-0.3,0.1
			c-0.2,0.2-0.5,0.3-0.8,0.4c-0.2,0-0.3,0.1-0.5,0.2c-0.2,0.2-0.4,0.3-0.7,0.4c-0.3,0.1-0.5-0.1-0.5-0.4c0-0.4-0.2-0.7-0.3-1.1
			c-0.1-0.1-0.1-0.2,0-0.4c0.1-0.5-0.2-0.8-0.5-1.1c-0.2-0.2-0.4-0.4-0.5-0.7c-0.2-0.4-0.4-0.6-0.8-0.8c-0.2-0.1-0.4-0.3-0.4-0.5
			c-0.1-0.2-0.2-0.4-0.2-0.6c0-0.2,0-0.3-0.1-0.5c-0.1-0.1-0.1-0.2-0.2-0.3c-0.1-0.2-0.2-0.3-0.4-0.4c-0.2-0.1-0.3-0.2-0.4-0.4
			c0-0.1-0.1-0.2-0.1-0.3c-0.3-0.4-0.6-0.8-0.9-1.2c-0.1-0.2-0.2-0.3-0.5-0.3c0-0.3,0.1-0.5,0.1-0.8c-0.1,0.2-0.1,0.4-0.2,0.7
			c0,0.1,0,0.3-0.1,0.3c-0.1,0-0.2-0.1-0.3-0.2c-0.3-0.2-0.4-0.6-0.6-0.9c0,0,0-0.1-0.1-0.1c-0.1,0-0.1,0.1,0,0.2
			c0.1,0.2,0.1,0.4,0.3,0.6c0.3,0.3,0.5,0.7,0.7,1.1c0.3,0.5,0.5,1.1,1,1.5c0,0,0,0.1,0,0.1c-0.1,0.3,0,0.6,0.3,0.7
			c0.2,0.1,0.3,0.2,0.4,0.3c0.1,0,0.1,0.1,0.1,0.1c0,0,0,0,0,0.1c0.2,0.4,0.3,0.8,0.3,1.2c0,0.5,0.3,0.7,0.7,0.9
			c0.1,0.1,0.2,0.2,0.3,0.3c0.1,0.2,0.2,0.5,0.3,0.7c0,0.2,0.1,0.4,0.3,0.6c0,0.1,0.1,0.2,0.2,0c0,0,0.1,0,0.1,0
			c0.1,0.3,0.3,0.2,0.5,0.3c0.2,0.1,0.3,0.2,0.4,0.3c0,0,0,0,0,0c0.3,0.2,0.5,0.4,0.7,0.6c0.1,0.1,0.2,0.1,0.3,0.2
			c0.1,0.2,0.1,0.3-0.1,0.4c-0.1,0-0.1,0.1-0.2,0.1c0.3,0,0.3,0,0.5,0.3c0.2,0.2,0.3,0.4,0.6,0.3c0.1,0,0.2-0.1,0.3-0.1
			c0.1-0.1,0.3-0.2,0.5-0.2c0.2,0,0.3,0,0.5-0.2c0.1-0.1,0.2-0.2,0.4-0.2c0.1,0,0.1,0,0.2-0.1c0.1-0.1,0.3-0.1,0.5-0.1
			c0.3-0.1,0.6-0.2,0.8-0.4c0,0,0-0.1,0.1-0.1c0.1-0.1,0.2,0,0.3,0c0.1,0,0.1,0.1,0,0.2c0,0.1,0,0.3,0,0.4c0,0.1,0.1,0.3-0.1,0.4
			c0,0,0,0.1,0,0.1c0.1,0.4-0.2,0.8-0.4,1.2c-0.2,0.4-0.3,0.8-0.5,1.1c0,0.1-0.1,0.2-0.1,0.3c-0.4,0.8-0.9,1.6-1.5,2.2
			c-0.1,0.1-0.2,0.2-0.3,0.2c-0.7,0.5-1.3,1.1-1.8,1.7c-0.2,0.2-0.4,0.4-0.5,0.7c0,0.1-0.1,0.2-0.2,0.2c-0.1,0.1-0.2,0.1-0.2,0.3
			c0,0,0,0,0,0c-0.4,0.2-0.4,0.6-0.6,0.9c-0.1,0.1-0.1,0.3-0.2,0.4c-0.2,0.2-0.2,0.5-0.3,0.8c0,0.1,0,0.2,0.1,0.2
			c0.1,0.1,0.1,0.1,0.2,0.2c0.2,0.1,0.2,0.2,0.1,0.3c-0.1,0.1-0.1,0.2,0,0.3c0,0,0,0.1,0,0.1c-0.1,0.2,0,0.4,0.1,0.5
			c0,0.1,0,0.1,0.1,0.2c0,0.2,0.1,0.4,0.3,0.5c0.1,0,0.2,0.2,0.2,0.3c-0.1,0.3,0,0.5-0.1,0.8c0,0.2,0,0.4,0,0.6c0,0.1,0,0.2,0,0.3
			c0.1,0.3,0,0.5-0.2,0.8c-0.2,0.3-0.4,0.5-0.7,0.7c-0.1,0-0.2,0.1-0.3,0.1c-0.5,0.2-0.9,0.4-1.2,0.8c-0.1,0.1-0.2,0.2-0.3,0.2
			c-0.1,0-0.2,0.1-0.3,0.2c-0.1,0.1-0.2,0.2-0.3,0.2c-0.1,0-0.2,0-0.2,0.1c0,0.1-0.1,0.2,0,0.3c0.1,0.1,0.1,0.3,0.1,0.4
			c0,0.2,0.2,0.4,0.1,0.6c0,0.1-0.1,0.2-0.1,0.3c0.1,0.4-0.3,0.5-0.5,0.6c-0.2,0.1-0.5,0.2-0.7,0.3c-0.1,0-0.2,0.1-0.3,0.2
			c0,0-0.1,0.1,0,0.1c0.1,0,0.1,0.1,0.1,0.2c-0.1,0.3-0.2,0.5-0.3,0.7c-0.1,0.1-0.2,0.2-0.3,0.3c-0.2,0.1-0.4,0.2-0.5,0.4
			c-0.5,0.6-1.2,1.1-1.9,1.4c-0.2,0.1-0.5,0.2-0.8,0.2c-0.1,0-0.2,0.1-0.4,0.1c-0.4,0.1-0.7,0-1.1,0c-0.2,0-0.5,0-0.7,0.1
			c-0.1,0-0.2,0-0.3,0c-0.1,0-0.3,0-0.4,0.1c-0.2,0.1-0.3,0-0.5,0c-0.1-0.1-0.3-0.2-0.4-0.2c0,0-0.1,0-0.1,0c0-0.2-0.2-0.3-0.3-0.5
			c0-0.1,0.2,0,0.2-0.2c0-0.1,0-0.2-0.1-0.3c-0.1-0.1-0.2-0.3-0.3-0.4c-0.1-0.1-0.2-0.2-0.2-0.3c-0.1-0.3-0.3-0.5-0.6-0.7
			c-0.5-0.3-0.7-0.8-0.8-1.3c0-0.1-0.1-0.3-0.1-0.4c-0.2-0.2-0.2-0.5-0.2-0.8c0-0.1,0-0.2-0.1-0.3c-0.4-0.4-0.7-1-1.1-1.5
			c-0.1-0.1-0.2-0.2-0.3-0.3c-0.2-0.2-0.3-0.4-0.3-0.7c0-0.2,0-0.4,0-0.6c0,0,0-0.1,0-0.1c0.2-0.3,0.2-0.7,0.3-1.1
			c0.1-0.2,0.2-0.4,0.4-0.5c0.3-0.2,0.4-0.7,0.2-1.1c-0.1-0.2-0.3-0.5-0.4-0.7c0-0.1-0.1-0.2,0.1-0.2c0.1-0.1,0.1-0.2,0.1-0.3
			c-0.2-0.3-0.3-0.7-0.5-1c-0.1-0.1-0.2-0.1-0.1-0.3c0-0.1,0-0.1-0.1-0.1c0,0-0.1-0.1-0.1-0.2c0-0.4-0.2-0.6-0.5-0.8
			c-0.3-0.4-0.7-0.7-1-1.1c-0.1-0.1-0.3-0.3-0.2-0.5c0,0,0,0,0-0.1c-0.2,0-0.2-0.3-0.3-0.4c0.2,0,0.3-0.2,0.3-0.3
			c0-0.1,0-0.1,0.1-0.2c0.1,0-0.2-0.2,0-0.2c0.1-0.1,0.1-0.1,0.1-0.2c0,0,0,0,0-0.1c-0.1-0.1-0.1-0.2,0-0.2c0.2-0.3,0.1-0.6,0.3-1
			c0-0.1,0-0.1-0.1-0.2c0-0.1-0.1-0.2-0.1-0.2c0-0.1,0-0.1-0.1-0.1c-0.1,0-0.2-0.1-0.3-0.2c0-0.1,0-0.2-0.2-0.2
			c-0.1,0-0.1-0.2-0.2-0.1c-0.1,0,0,0.1-0.1,0.1c0,0,0,0-0.1,0c-0.3-0.1-0.6,0-0.9,0c-0.3,0-0.6-0.2-0.6-0.5
			c-0.1-0.4-0.4-0.8-0.9-0.9c-0.1,0-0.1-0.1-0.2-0.1c-0.3,0.1-0.7,0-1,0c-0.1,0-0.3,0-0.4,0.1c-0.1,0.1-0.1,0.1-0.2,0.1
			c-0.1,0-0.2,0-0.3,0c-0.3,0.2-0.7,0.2-1.1,0.3c-0.1,0-0.2,0.1-0.3,0c0,0-0.1,0-0.1,0c-0.2-0.1-0.3-0.1-0.5-0.3
			c-0.2,0.1-0.3-0.1-0.5-0.1c-0.5,0-0.9,0-1.3,0.1c-0.1,0-0.1,0-0.2,0.1c-0.2,0.1-0.3,0-0.5-0.1c-0.3-0.2-0.5-0.4-0.8-0.7
			c-0.3-0.5-0.7-0.8-1.1-1.3c-0.1-0.1-0.2-0.2-0.3-0.3c0.1-0.1,0-0.2-0.1-0.3c-0.1-0.1-0.1-0.2-0.1-0.3c0-0.1,0-0.2,0-0.3
			c0-0.3-0.2-0.6-0.4-0.9c0,0,0,0,0,0c-0.1-0.3-0.3-0.5-0.4-0.8c0,0,0-0.1,0-0.2c0.1-0.1-0.2-0.2,0-0.2c0,0-0.1,0-0.1,0
			c-0.1,0.1-0.2,0-0.3-0.1c-0.2-0.3-0.3-0.6-0.2-0.9c0-0.1,0.2-0.1,0.1-0.2c-0.1-0.2-0.1-0.5-0.2-0.7c0.3-0.2,0.5-0.4,0.5-0.8
			c0-0.2,0.1-0.4,0.2-0.5c0.2-0.4,0.3-0.8,0.2-1.2c0-0.2,0-0.3,0.1-0.4c0.1-0.2,0.1-0.3,0-0.5c-0.2-0.4-0.1-0.7,0.2-1
			c0.2-0.2,0.3-0.4,0.4-0.6c0.1-0.2,0.2-0.3,0.4-0.4c0.2-0.1,0.3-0.2,0.4-0.4c0.1-0.2,0.2-0.3,0.3-0.5c0.1-0.1,0.1-0.1,0.2-0.2
			c0.2,0,0.3-0.2,0.4-0.4c0-0.1,0.1-0.2,0.2-0.2c0.1-0.1,0.2-0.2,0.3-0.2c0.7,0,1.2-0.4,1.6-0.9c0.1-0.1,0.1-0.1,0.1-0.2
			c0-0.3,0.1-0.6,0.3-0.8c0.1-0.1,0.1-0.1,0.2-0.2c0.1-0.3,0.4-0.5,0.6-0.5c0.6-0.1,1-0.5,1.3-1c0.1-0.1,0.2-0.3,0.4-0.2
			c0,0.1,0,0.2,0.1,0.3c0.1,0.1,0.1,0.2,0.3,0.2c0.2,0,0.4,0.1,0.5,0c0.1,0,0.1,0,0.1,0c0.2,0.2,0.4,0.2,0.6,0.1
			c0.2-0.1,0.5-0.3,0.8-0.3c0,0,0.1,0,0.1,0c0.3-0.2,0.6-0.3,0.9-0.2c0.3,0,0.6-0.1,1-0.1c0.2,0,0.4,0,0.6,0.1c0,0.1,0.1,0,0.2,0
			c0.1,0,0.2-0.1,0.3-0.1c0.1,0,0.2,0,0.3,0c0.1,0,0.1,0.1,0.2,0c0,0,0.1,0,0.1,0c0.2,0.2,0.5,0.1,0.7,0c0.1,0,0.2-0.1,0.2-0.1
			c0.2,0,0.3,0.1,0.4,0.3c0.1,0,0.2-0.1,0.3-0.1c0,0,0,0,0,0c0,0.1-0.1,0.2-0.2,0.3c-0.2,0.2-0.2,0.2-0.1,0.4c0.2,0.2,0.2,0.3,0,0.5
			c-0.1,0.1-0.2,0.2-0.3,0.3c-0.1,0.1-0.2,0.1-0.1,0.2c0,0.1,0.1,0.2,0.2,0.2c0,0.1,0,0.1,0.1,0.1c0.1,0.2,0.4,0.3,0.6,0.4
			c0.1,0.1,0.2,0.1,0.3,0.1c0.3-0.1,0.5,0.1,0.7,0.2c0,0,0,0,0,0c0.3,0.2,0.4,0.3,0.5,0.6c0.1,0.2,0.2,0.2,0.4,0.3
			c0.2,0,0.5,0.1,0.7,0.2c0.2,0.1,0.3,0.2,0.5,0.3c0.2,0.2,0.3,0.2,0.5,0c0.2-0.2,0.3-0.3,0.2-0.6c-0.1-0.3,0-0.4,0.2-0.6
			c0.4-0.2,0.7-0.4,1.2-0.2c0.1,0,0.2,0.1,0.2,0.2c0,0.1,0.1,0.1,0.1,0.1c0.2,0,0.4,0.1,0.6,0.1c0.2,0,0.3,0,0.3,0.2
			c0,0.1,0.1,0.1,0.2,0.1c0.3-0.1,0.6,0,0.9,0.1c0.3,0.1,0.6,0.1,0.9,0.2c0.1,0,0.1,0,0.2,0c0.1-0.1,0.3-0.2,0.4-0.2
			c0.2-0.2,0.5-0.1,0.8-0.1c0,0,0,0,0,0c0,0.2,0.1,0.2,0.2,0.1c0.2,0.1,0.3,0,0.5,0c0.4,0,0.6-0.1,0.7-0.5c0.1-0.4,0.2-0.9,0.4-1.3
			c0.1-0.3,0.1-0.6,0-0.9c0-0.2-0.1-0.4,0.1-0.6c0,0,0-0.1,0-0.1c0-0.1-0.1,0-0.1,0c-0.1,0.1-0.3,0.2-0.4,0.1
			c-0.1-0.1-0.2,0-0.3,0.1c-0.1,0.2-0.3,0.3-0.6,0.3c-0.2,0-0.3,0-0.4-0.1c-0.2-0.2-0.4-0.3-0.7-0.3c-0.1,0-0.2,0-0.2,0.1
			c0,0.2-0.1,0.2-0.3,0.3c-0.2,0-0.3,0-0.4-0.1c-0.1-0.2-0.3-0.2-0.5-0.2c-0.1,0,0-0.1,0-0.2c-0.1,0-0.2,0-0.4,0
			c0-0.1,0.1-0.1,0-0.2c-0.1,0-0.1-0.1-0.1-0.1c0.1-0.3-0.1-0.3-0.3-0.3c0,0-0.1,0-0.1,0c0,0,0-0.1,0-0.1c0-0.1,0.1,0,0.1,0
			c0.1,0.1,0.1,0,0.1-0.1c0.1-0.2-0.1-0.3,0-0.5c-0.1,0-0.2,0.1-0.3,0c0-0.2,0-0.4,0.2-0.6c0-0.1-0.1,0-0.2-0.1
			c-0.3-0.3-0.7-0.1-1,0c-0.1,0-0.1,0.1,0,0.1c0.1,0.1-0.1,0.2,0,0.2c0,0,0,0.1,0,0c-0.2-0.1-0.4-0.1-0.5-0.3
			c-0.1,0.1-0.1,0.2,0,0.4c0.1,0.1,0.2,0.2,0.2,0.4c-0.1,0-0.1-0.1-0.2,0c0,0.1,0,0.1-0.1,0.2c0,0,0.1,0.1,0.2,0.1
			c0,0,0.1,0.1,0.1,0.1c0.1,0.1,0.1,0.1,0.2,0.1c0,0,0.1,0,0.1,0.1c0,0.1,0,0.2,0,0.3c-0.1,0-0.1-0.1-0.2-0.1c-0.1,0-0.1-0.1-0.2,0
			c0,0.1,0,0.1,0.1,0.2c0,0,0.1,0.1,0,0.1c0,0-0.1,0-0.1,0c-0.1,0-0.1-0.1-0.2-0.1c0,0.2,0.2,0.3,0.1,0.5c-0.2-0.1-0.2-0.1-0.3,0
			c-0.1,0-0.1-0.1-0.1-0.2c0,0-0.1-0.1-0.1,0c-0.1,0-0.2,0-0.2-0.2c0-0.1,0-0.2-0.1-0.3c-0.1-0.2-0.1-0.2,0.1-0.3c0,0,0,0,0.1,0
			c0,0,0,0,0,0c-0.1-0.1-0.3,0-0.4-0.2c0-0.1-0.2-0.1,0-0.2c0,0,0,0,0,0c-0.1,0-0.2-0.1-0.3-0.2c0-0.1-0.1-0.2-0.2-0.4
			c-0.3-0.2-0.2-0.5-0.1-0.8c0-0.2,0-0.3-0.1-0.4c-0.2-0.2-0.4-0.3-0.6-0.4c-0.1-0.1-0.1-0.1-0.2-0.2c-0.1-0.1-0.2-0.2-0.4-0.2
			c-0.1,0-0.2,0-0.3-0.1c0-0.1-0.1-0.1-0.2-0.2c0.1-0.3-0.1-0.5-0.2-0.7c-0.1-0.1-0.2-0.1-0.2,0.1c-0.1,0.1-0.1,0.2-0.2,0
			c-0.1-0.1-0.1-0.2,0.1-0.4c-0.2-0.1-0.4,0.1-0.6,0.1c0,0-0.1,0.1-0.1,0.1c0.1,0.1,0,0.2,0,0.3c-0.1,0.1,0,0.2,0.1,0.3
			c0.1,0.1,0.2,0.1,0.2,0.2c0.1,0.1,0.2,0.2,0.2,0.3c0.1,0.5,0.4,0.8,0.9,0.8c0.1,0.1-0.1,0.1-0.1,0.2c0,0.1,0.1,0.1,0.2,0.2
			c0.3,0.1,0.5,0.3,0.7,0.4c0.1,0.1,0.2,0.1,0.2,0.3c0,0,0,0.1-0.1,0.1c0,0-0.1,0-0.1,0c-0.1-0.2-0.2-0.2-0.3-0.3
			c-0.1-0.1-0.2,0-0.3,0.1c0,0-0.1,0.1-0.1,0.2c-0.1,0.1,0,0.2,0.1,0.2c0.1,0,0.1,0.1,0.1,0.2c0,0.1,0,0.1-0.1,0.1
			c-0.1,0-0.2,0.1-0.2,0.2c0,0.1-0.2,0.2-0.3,0.3c0,0-0.1,0-0.1,0c-0.1,0-0.1-0.2-0.2-0.1c-0.1,0.1-0.2,0.2-0.2,0.4c0,0,0,0,0,0.1
			c0,0.1,0,0.2-0.1,0.2c-0.1,0.1-0.2,0-0.2,0c-0.2-0.2-0.5-0.4-0.8-0.5c-0.1,0-0.1-0.1-0.1-0.1c0-0.1,0.1-0.2,0.1-0.2
			c0.1,0.1,0.2-0.1,0.3,0c0.2,0.1,0.4,0.1,0.6,0.1c0.1,0,0.2,0,0.3,0c0.3,0,0.4-0.2,0.5-0.3c0,0,0-0.1,0-0.1c0-0.1-0.1-0.3-0.1-0.4
			c0,0,0,0,0-0.1c0-0.2-0.2-0.1-0.3-0.2c-0.1-0.1,0-0.3-0.2-0.3c-0.2-0.2-0.5-0.4-0.8-0.5c-0.1,0-0.1-0.1-0.2-0.2
			c-0.1-0.1-0.3-0.3-0.4-0.4c-0.2-0.2-0.3-0.4-0.3-0.7c0-0.3-0.5-0.5-0.8-0.3c-0.1,0.1-0.2,0.2-0.4,0.2c-0.2,0-0.3,0.1-0.4,0.2
			c-0.2,0.1-0.4,0.1-0.6,0c-0.2-0.1-0.4-0.1-0.6-0.2c-0.1-0.1-0.5,0.2-0.5,0.4c0,0.3-0.1,0.5-0.4,0.6c-0.2,0.1-0.3,0.1-0.5,0.2
			c-0.1,0-0.2,0.1-0.3,0.2c-0.1,0.2-0.4,0.3-0.5,0.5c-0.2,0.3-0.2,0.4-0.1,0.6c0,0.1-0.1,0.1-0.2,0.1c-0.1,0-0.2,0.1-0.2,0.2
			c-0.1,0.2-0.2,0.4-0.5,0.4c0,0-0.1,0.1-0.1,0.1c-0.2,0.3-0.4,0.2-0.7,0.2c-0.1,0-0.2,0-0.2,0c-0.3-0.1-0.6,0-0.9,0.2
			c-0.1,0.1-0.2,0.1-0.3-0.1c0-0.1-0.1-0.2-0.1-0.4c0-0.2-0.1-0.3-0.3-0.3c-0.2,0.1-0.5,0-0.7-0.1c0.1-0.1,0.2-0.3,0.2-0.4
			c0-0.2,0.1-0.3,0-0.5c-0.1-0.2,0-0.3,0.2-0.4c0.2-0.2,0.3-0.3,0.4-0.5c0.1-0.2,0.2-0.4,0.3-0.6c0-0.1,0-0.2,0.1-0.3
			c0.1-0.1,0.1-0.2,0.1-0.4c0-0.2,0-0.3,0.2-0.3c0,0,0,0,0.1,0c0.2-0.2,0.4-0.1,0.7,0c0.2,0.1,0.5,0.1,0.7,0.2
			c0.1,0.1,0.2,0.1,0.3,0.1c0.2,0,0.5,0.1,0.7,0.1c0.2,0.1,0.4,0,0.5-0.2c0.2-0.4,0.4-0.7,0.5-1.1c0-0.1,0-0.2-0.1-0.2
			c-0.1-0.1-0.1-0.2-0.1-0.3c0-0.2,0-0.3-0.2-0.4c-0.1,0-0.2-0.1-0.3-0.1c-0.2-0.1-0.2-0.2-0.2-0.4c0,0,0,0,0.1-0.1
			c0.2-0.1,0.4,0,0.5,0c0.1,0.2,0.4,0.1,0.6,0.2c0.1-0.1,0.1-0.3,0.1-0.4c0,0,0-0.1,0.1-0.1c0,0,0.1,0,0.1,0c0,0.2,0.2,0.2,0.3,0.2
			c0.1,0,0.1,0,0.2,0c0.1-0.2,0.2-0.2,0.3-0.2c0.2,0,0.3-0.1,0.3-0.3c0.1-0.2,0.2-0.3,0.4-0.3c0.2,0,0.3-0.1,0.5-0.1
			c0.2,0.1,0.2,0,0.2-0.2c0.1-0.2,0.3-0.3,0.4-0.5c0.2-0.2,0.4-0.3,0.7-0.3c0.1,0,0.2,0.1,0.3-0.1c0-0.1,0.2-0.1,0.2,0
			c0.2,0.2,0.3-0.1,0.4-0.1c0.1,0,0-0.1,0-0.1c0-0.2,0-0.4,0.1-0.6c0,0,0-0.1,0-0.1c-0.1-0.1-0.1-0.1-0.1-0.2
			c0.1-0.3,0.1-0.3,0.3-0.4c-0.1,0-0.1,0-0.2-0.1c0.2-0.2,0.6-0.1,0.8-0.4c0,0.1,0,0.2,0,0.3c-0.1,0.2-0.1,0.2,0.1,0.4
			c-0.2,0.1-0.4,0.2-0.5,0.4c0,0,0,0,0,0c-0.2,0.2-0.1,0.5,0.1,0.6c0,0,0.1,0,0.1,0c0,0.1,0,0.2,0.2,0.2c0.1,0,0.2-0.1,0.3-0.1
			c0.1,0,0.1-0.1,0.2-0.1c0,0.1,0.1,0.1,0.2,0.1c0.4,0.3,0.7,0.1,1-0.1c0.2-0.1,0.3-0.1,0.5-0.2c0.1,0,0.2,0,0.3,0.1
			c0.1,0.2,0.3,0.1,0.4,0c0.1-0.2,0.2-0.2,0.3-0.1c0.1,0,0.2,0,0.2-0.1c0-0.1,0-0.2,0-0.2c-0.1-0.3,0-0.5,0.1-0.7
			c0.1-0.2,0.3-0.3,0.5-0.1c0,0,0.1,0.1,0.1,0.1c0.1,0.1,0.1,0.1,0.2,0.1c0.1,0,0.2-0.1,0.1-0.2c0-0.1,0-0.2,0-0.4
			c-0.1,0-0.3,0-0.3-0.2c0-0.2,0-0.2,0.2-0.3c0.3-0.1,0.5-0.2,0.8-0.1c0.2,0,0.2,0,0.6-0.1c0.1,0,0.2-0.1,0.4-0.1
			c0-0.1-0.1-0.1-0.1-0.1c0,0-0.1,0-0.1,0c-0.3-0.3-0.6-0.1-1,0c-0.2,0-0.4,0.1-0.6,0.2c-0.2,0-0.4,0-0.5-0.2c0,0-0.1,0-0.1-0.1
			c-0.1,0-0.2-0.1-0.1-0.2c0.1-0.2,0-0.4,0-0.6c0-0.2,0-0.3,0.1-0.3c0.4-0.2,0.6-0.5,0.9-0.7c0.1-0.1,0.1-0.2,0-0.3
			c-0.3-0.2-0.8-0.1-0.9,0.2c0,0,0,0.1,0,0.1c0.1,0.3-0.2,0.4-0.4,0.5c-0.3,0.1-0.5,0.3-0.7,0.5c-0.2,0.2-0.3,0.4-0.2,0.7
			c0,0.1,0,0.1,0.1,0.1c0.1,0,0.1,0.1,0.2,0.1c0.2,0.2,0.1,0.2,0,0.4c-0.1,0.2-0.3,0.3-0.5,0.4c-0.1,0-0.1,0.1-0.2,0.2
			c-0.1,0.2-0.1,0.5-0.2,0.7c-0.1,0.1-0.2,0.2-0.4,0.2c-0.2,0-0.4,0-0.4,0.3c0,0.1-0.1,0.1-0.2,0.1c-0.2,0-0.2,0-0.3-0.2
			c0,0,0-0.1,0-0.1c-0.1,0.2-0.2,0.4-0.3,0.5c-0.1,0,0-0.1-0.1-0.1c-0.1-0.1-0.2-0.1-0.1-0.2c0-0.1,0.1-0.1,0.2-0.1
			c0.1,0,0.2-0.1,0.3-0.2c0.1-0.1,0.1-0.1,0-0.3c-0.1-0.3-0.3-0.6-0.2-1c0-0.1-0.1-0.2-0.1-0.3c-0.1,0.1-0.1,0.2-0.3,0.2
			c-0.1,0-0.2,0.1-0.3,0.1c-0.1,0.1-0.2,0.1-0.3,0.2c-0.3,0.1-0.6,0-0.7-0.2c-0.1-0.1-0.1-0.2,0-0.2c0.1,0,0.1-0.1,0.1-0.1
			c0-0.1-0.1,0-0.2,0c0.1-0.4,0.3-0.7,0.4-1.1c0-0.1,0.1-0.2,0.3-0.2c0.1,0,0.2-0.1,0.3-0.1c0.1,0,0.1-0.2,0.3-0.2
			c0.2,0,0.3,0,0.3-0.2c0,0,0.1-0.1,0.1,0c0.1,0.1,0.2,0,0.3-0.1c0.2-0.2,0.4-0.3,0.7-0.5c0.1-0.1,0.1-0.1,0.2-0.2
			c0.2-0.3,0.5-0.6,0.8-0.7c0.1-0.1,0-0.2,0.2-0.2c0.1,0,0.2,0,0.3-0.1v0c0.1,0,0.2,0.1,0.1-0.1c0,0,0.1,0,0.1-0.1
			c0.1,0,0.2-0.1,0.3-0.2c0.1-0.1,0.2-0.1,0.3,0c0.1,0.1,0.1,0,0.1-0.1c0.2-0.2,0.6-0.2,0.8-0.4c0,0,0.1,0,0.1,0
			c0.1,0.1-0.1,0.1,0,0.2c0.1,0,0.1-0.1,0.1-0.1c0.1-0.1,0.1,0,0.2,0c0-0.1,0.1-0.1,0.1-0.2c0-0.1,0.1-0.1,0.1,0
			c0,0.2,0.1,0.1,0.2,0.1c0.1,0,0.3,0.1,0.4,0.2c0,0.1-0.2,0.1-0.3,0.1c0.1,0.1,0.3,0.1,0.5,0.1c0.1,0,0.2,0,0.2,0.1
			c0.1,0.1,0.2,0.1,0.3,0.1c0.3,0,0.7,0.1,1,0.2c0.1,0.1,0.3,0.1,0.5,0.2c0.2,0,0.3,0.1,0.4,0.3c0.1,0.1,0.1,0.2,0,0.3
			c-0.1,0.2-0.4,0.2-0.6,0.2c-0.5-0.1-0.9-0.1-1.4-0.3c0.1,0.1,0.3,0.2,0.5,0.3c0.1,0,0.2,0.1,0.2,0.3c0,0.2,0.1,0.5,0.4,0.5
			c0.1,0,0.1,0.1,0.2,0.1c0.1,0,0.2,0.1,0.3,0.1c0.1,0,0.2,0,0.2-0.1c0-0.1-0.1-0.1-0.2-0.1c-0.1,0-0.1,0-0.2-0.1
			c-0.1,0-0.2-0.1-0.1-0.2c0.1-0.1,0.1-0.1,0.2,0c0.1,0.1,0.3,0.1,0.4,0.1c0,0,0.1,0,0.1,0c0.1,0,0.1,0,0.1-0.1c0-0.1,0-0.1-0.1-0.1
			c-0.2-0.2-0.1-0.2,0-0.4c0,0,0.1,0,0.1-0.1c0.3-0.2,0.3-0.2,0.6-0.1c0-0.2,0-0.3-0.2-0.4c-0.1,0-0.1-0.1-0.1-0.1
			c0-0.2-0.1-0.3-0.3-0.4c0.3-0.1,0.6-0.1,0.8,0.2c-0.1,0.1-0.2,0.1-0.2,0.2c0.1,0.1,0.2,0.1,0.4,0.2c0.2,0.1,0.3,0,0.3-0.2
			c0-0.1,0-0.1,0.1-0.2c0.1-0.1,0.2-0.2,0.3-0.3c0.1-0.1,0.4-0.2,0.4-0.4c0.1,0,0.1,0.1,0.1,0.1c0.1,0.2,0.2,0.2,0.3,0
			c0,0,0.1-0.1,0.2-0.1c0.1,0,0.1,0,0.2,0c0.1-0.2,0.3-0.2,0.4,0c0,0,0.1,0,0.1,0c0-0.1,0.1-0.2,0-0.2c-0.1,0-0.1-0.1-0.2-0.1
			c-0.1-0.1-0.1-0.1,0-0.1c0.2,0,0.4-0.1,0.6,0c0.3,0.1,0.7,0.1,1.1,0.2c0-0.1,0-0.2-0.2-0.2c-0.1,0-0.2,0-0.2-0.1
			c-0.1-0.1-0.4,0-0.5-0.2c-0.1-0.2-0.2-0.3-0.4-0.3c0,0-0.1-0.1-0.1-0.1c0-0.3-0.2-0.4-0.3-0.6c0.4-0.2,0.5-0.2,0.7,0.1
			c0.1,0.1,0.3,0.2,0.5,0.3c0.2,0.1,0.5,0.3,0.7,0.5c0.1,0.1,0.2,0.1,0.3,0.2c0.3,0.1,0.5,0.3,0.6,0.6c0,0.1,0.1,0.1,0.1,0.2
			c0,0.1,0,0.1-0.1,0.1c0,0-0.1-0.1-0.1-0.1c-0.1,0-0.2,0-0.2,0.1c0,0.1,0.1,0,0.2,0c0,0,0.1,0,0.1,0c0.1,0.1,0.3,0,0.4,0
			c0-0.2,0-0.4-0.1-0.6c-0.1-0.1-0.2-0.2-0.4-0.3c-0.1,0-0.2-0.1-0.1-0.2c0-0.1,0.1-0.1,0.2-0.1c0.1,0,0.2,0.1,0.4,0.2
			c0.1,0.1,0.2,0.1,0.3,0.2c0.1,0,0.1,0,0.2-0.1c-0.2,0-0.3,0-0.4-0.1c-0.2-0.1-0.4-0.2-0.6-0.2c0,0-0.1,0-0.1,0
			c-0.2,0.2-0.4,0-0.5-0.1c-0.2-0.2-0.5-0.4-0.8-0.5c-0.2,0-0.1-0.2-0.1-0.3c0,0,0.1,0,0.1,0c0.1,0,0.1,0.1,0.2,0.1
			c0,0,0-0.1,0.1-0.1c0,0,0.1,0,0.1,0c0,0-0.1,0-0.1,0c0,0,0-0.1,0-0.1l0,0c0.3,0,0.6,0.1,0.8,0c0,0,0,0,0,0c0,0,0,0,0,0
			c0.1,0.3,0.5,0.2,0.6,0.4c-0.1-0.2-0.3-0.3-0.6-0.4c0,0,0,0,0,0c0,0,0,0,0,0c-0.1-0.1-0.3-0.1-0.4-0.1c-0.2,0-0.4-0.1-0.7-0.2
			c-0.1,0-0.1-0.1,0-0.2c0.1-0.1,0.2-0.1,0.2-0.3c-0.1-0.1-0.2,0-0.4-0.1c-0.2-0.1-0.3-0.2-0.3-0.4c0-0.1,0-0.1,0-0.2
			c-0.1-0.1-0.1-0.2,0.1-0.2c0.1,0,0-0.1,0-0.1c-0.1-0.1-0.1-0.2-0.3-0.2c-0.2,0-0.3-0.1-0.4-0.2c0-0.1,0.1-0.1,0.1-0.1
			c0.2,0.1,0.3,0,0.5,0c0,0,0.1,0,0.1-0.1c0-0.1,0.1-0.1,0.2-0.1c0.4,0,0.8,0.1,1.1,0.4c0,0.1,0.1,0.1,0.1,0.1
			c0.1,0,0.1,0.1,0.2,0.1h0c0.1,0.2,0.3,0.3,0.5,0.4c0-0.3-0.2-0.3-0.4-0.4c0.1,0,0.2,0,0.2-0.2c0,0,0-0.1,0.1-0.1c0,0,0.1,0,0.1,0
			c0.1,0,0.1-0.1,0-0.2c-0.1-0.1-0.2-0.1-0.3-0.1c-0.1,0-0.2,0-0.2-0.1c0-0.1,0.1-0.1,0.2-0.1c0.3,0.1,0.5,0.1,0.8,0.2
			c0.1,0,0.1,0,0.2,0c0,0,0-0.1,0-0.1c-0.3-0.1-0.5-0.3-0.8-0.5c-0.1-0.1-0.2-0.1-0.3-0.1c-0.3-0.1-0.6-0.1-0.9-0.4
			c0,0-0.1-0.1-0.1-0.1c0-0.1,0.1,0,0.1-0.1c0-0.1,0.1-0.1,0.1-0.1c1.1,0.3,2.1,0.6,3.2,1c5.5,2,10.1,5.3,14,9.7
			c0.1,0.1,0.2,0.3,0.3,0.4c0.1,0.1-0.1,0-0.1,0.1c0.1,0.1,0.1,0.1,0.2,0.2c0.1,0.1,0.1,0.1,0.2,0.2c0.1,0.1,0.1,0.1,0.2,0.2
			c0.1,0.1,0.1,0.4,0.3,0.5c0.1,0.1,0.2,0.2,0.3,0.1c0-0.1-0.1-0.1,0-0.2c0.1,0,0.1,0.1,0.1,0.1c0.1,0.2,0.3,0.4,0.4,0.6
			c0.3,0.6,0.8,1.1,1.2,1.7c0.2,0.3,0.4,0.5,0.6,0.8c0.7,1.2,1.4,2.5,2,3.8c0.2,0.5,0.5,1.1,0.5,1.7c0.2,0.5,0.1,1,0.3,1.4
			c0,0-0.1,0-0.1,0c0,0,0-0.1-0.1-0.1c-0.1,0-0.1,0-0.1,0.1c0,0.2,0,0.5,0.1,0.7c0,0.3,0.1,0.5,0.2,0.8c0.1,0.5,0.3,0.9,0.6,1.2
			c0.2,0.3,0.4,0.7,0.6,1.1c0.3,0.9,0.5,1.8,0.4,2.7c0,0.4,0,0.8,0,1.3c0-0.2-0.1-0.4-0.1-0.5c0-0.1,0-0.2-0.1-0.2
			c-0.2-0.1-0.2-0.2-0.3-0.4c0-0.1-0.1-0.3-0.2-0.4c0,0,0-0.1-0.1-0.1c-0.3,0.1-0.2-0.2-0.2-0.2c0,0,0,0,0-0.1
			c-0.1,0.1-0.1,0.2-0.1,0.3c0.2,0.6,0.2,1.3,0.2,2c0,0.3,0.2,0.5,0.3,0.7c0,0.1,0.1,0.3,0.1,0.4c0,0.2,0,0.3,0.2,0.4
			c0.2,0.1,0.3,0.4,0.3,0.6c0.1,0.2,0.1,0.4,0.1,0.6c0,0.4,0.1,0.7,0.1,1.1c0,0.1,0,0.3,0,0.4c-0.2-0.1-0.3-0.3-0.3-0.4
			c-0.1-0.3-0.2-0.6-0.2-0.9c-0.1-0.5-0.1-1.1-0.4-1.5c-0.2-0.3-0.2-0.7-0.3-1c-0.1-0.6-0.2-1.3-0.3-1.9
			C702,189.3,701.9,189.1,701.8,188.9z"/>
		<path class="st4" d="M677.8,164.6c0.1,0.2,0.3,0.1,0.4,0.1c0,0,0,0,0.1,0c0,0,0,0,0,0c0,0,0,0,0.1,0
			C678.1,164.7,678,164.6,677.8,164.6C677.8,164.6,677.8,164.6,677.8,164.6L677.8,164.6L677.8,164.6
			C677.7,164.6,677.7,164.6,677.8,164.6C677.7,164.6,677.7,164.6,677.8,164.6C677.7,164.6,677.8,164.6,677.8,164.6z"/>
		<path class="st4" d="M676.7,179.1c-0.4-0.2-0.8-0.4-1.1-0.6c0,0-0.1-0.1-0.2-0.1c-0.3-0.1-0.5-0.2-0.8-0.3c0,0-0.1,0-0.1-0.1
			c0-0.1,0-0.1,0.1-0.1c0.2,0,0.2-0.1,0.2-0.2c0-0.1,0.1-0.2,0.2-0.2c-0.1-0.1-0.2-0.1-0.2-0.2c0.2-0.1,0.3-0.1,0.5-0.3
			c0,0-0.1,0-0.1,0c-0.4,0-0.7,0.2-1,0.3c-0.2,0.1-0.3,0.2-0.5,0.3c-0.1,0-0.1,0.1-0.1,0.2c0,0.2,0.3,0.3,0.5,0.3c0.1,0,0.1,0,0.2,0
			c0.1,0,0.1,0.1,0.1,0.1c0,0.1-0.1,0.1-0.2,0.1c-0.1,0-0.2,0-0.4,0.1c-0.1,0.1-0.3,0.2-0.4,0.3c-0.1,0.1-0.2,0-0.2-0.1
			c0-0.2,0-0.2-0.2-0.3c-0.1,0-0.2-0.1-0.3-0.1c0.1-0.1,0.2-0.2,0.3-0.3c0,0,0.1-0.1,0-0.1c0,0,0,0-0.1,0c-0.1,0-0.1,0-0.2,0
			c-0.2,0-0.3,0-0.5-0.1c0-0.1,0-0.1,0.1-0.1c0.1,0,0.1-0.1,0-0.1c-0.2-0.1-0.4,0.1-0.5,0.2c-0.1,0.1-0.1,0.2-0.2,0.2
			c-0.2,0.1-0.2,0.1-0.1,0.3c0,0.1,0,0.3-0.1,0.3c-0.2-0.1-0.2,0.1-0.2,0.2c-0.1,0.1-0.1,0.3-0.1,0.4c0,0.1,0,0.2,0,0.2
			c-0.2,0.1-0.2,0.2-0.3,0.4c-0.1,0.2-0.1,0.2,0,0.4c0,0,0,0,0,0.1c0.1,0.3,0.3,0.4,0.7,0.4c0.2,0,0.5,0,0.7,0c0.1,0,0.2,0,0.3-0.1
			c0.3-0.3,0.7-0.5,1.2-0.4c0.1,0,0.2,0,0.3,0c0.1,0,0.1,0,0.2,0c0.2,0.2,0.5,0.1,0.6,0.3c0,0,0.1,0,0.1,0c0.1,0,0.1,0,0.2,0
			c0.3,0.1,0.6,0.2,0.9,0c0.1,0,0.2,0,0.3,0c0.3,0,0.7-0.2,0.8-0.4c0-0.1,0.1-0.1,0-0.2C677,179.4,677,179.2,676.7,179.1z"/>
		<path class="st4" d="M682.4,180.3c-0.1,0-0.1-0.1,0-0.1c0.1-0.1,0-0.2-0.1-0.2c-0.2,0-0.2-0.1-0.3-0.2c0-0.1,0-0.2-0.1-0.3
			c0.3,0,0.5,0.2,0.7-0.2c-0.2-0.2-0.4-0.2-0.5-0.5c-0.1-0.1-0.2-0.1-0.3-0.1c-0.1,0-0.1,0.1-0.1,0.2c0,0.1,0.1,0.1,0,0.2
			c-0.2-0.1-0.3-0.3-0.3-0.5c0-0.1-0.1-0.2-0.2-0.2c-0.2,0-0.4-0.1-0.5-0.3c-0.1-0.1-0.2-0.3-0.4-0.4c-0.1,0-0.2,0-0.2-0.1
			c0-0.1,0.2-0.1,0.3-0.1c0,0,0.1,0,0.1,0c-0.3-0.3-0.2-0.5,0.1-0.5c0.1,0,0.2,0,0.3,0c-0.1-0.1-0.1-0.2-0.1-0.3
			c0-0.1-0.1-0.3-0.1-0.4c0-0.1-0.2-0.2-0.3-0.1c-0.1,0.1-0.3,0.1-0.4,0c-0.1,0-0.2,0-0.3,0.1c-0.2,0.2-0.5,0.4-0.6,0.6
			c-0.3,0.1-0.4,0.4-0.5,0.7c0,0,0,0,0,0c-0.1,0.1,0,0.2,0.1,0.2c0.2,0.1,0.4,0.3,0.4,0.5c0,0.1,0.1,0.2,0.2,0.3
			c0.3,0.4,0.7,0.6,1,1c0.1,0.1,0.2,0.1,0.3,0.1c0.1,0,0.1,0,0.2,0.1c-0.1,0.1-0.3,0.1-0.3,0.3c0,0.2,0.1,0.4-0.1,0.5
			c0,0,0,0.1,0,0.1c0,0.2,0.1,0.3,0.1,0.4c0,0.1,0.1,0.2,0.2,0.2c0.3,0,0.6,0.2,0.8,0.3c0.1,0,0.2,0,0.3,0c0.2,0,0.5-0.1,0.7-0.2
			c0.1-0.1,0.2-0.1,0.4-0.1c-0.1-0.3-0.3-0.6-0.4-0.9C682.7,180.5,682.7,180.4,682.4,180.3z"/>
		<path class="st4" d="M674.3,206.2c0.2,0.1,0.2,0.1,0.3,0.2c0-0.1,0-0.2,0.1-0.2c0.2,0,0.3,0,0.4-0.2c-0.1-0.1-0.2,0-0.2-0.1
			c0,0,0-0.1,0.1-0.1c0.2-0.1,0.3-0.3,0.3-0.5c0-0.2,0.2-0.3,0.3-0.4c0,0,0.1,0,0.1-0.1c-0.1,0-0.1,0-0.2,0c-0.1,0-0.2,0-0.2,0
			c-0.1-0.2-0.2-0.2-0.4-0.3c-0.1,0-0.1-0.1-0.2,0c-0.1,0.1-0.2,0.1-0.3,0.1c-0.3,0-0.6,0.3-0.5,0.7c0,0.1,0,0.2-0.1,0.4
			c-0.1,0.2,0,0.4,0.1,0.6C674.1,206.4,674.1,206.1,674.3,206.2z"/>
		<path class="st4" d="M673.1,208.8c0-0.1-0.1-0.2-0.2-0.2c-0.1,0-0.2,0-0.2-0.1c-0.1-0.1,0-0.2,0.1-0.3c0,0,0,0,0-0.1
			c-0.1-0.4-0.2-0.9-0.4-1.3c0,0.1-0.1,0.1,0,0.2c0.1,0.3-0.1,0.7,0.1,1.1c0,0,0,0.1,0,0.1c-0.1,0.3,0.1,0.5,0.2,0.7
			c0.2,0.2,0.3,0.3,0.4,0.5c0,0.1,0.2,0.2,0.1,0.3c0,0,0,0.1,0.1,0.1c0.1,0,0.1,0,0.2,0.1c0,0,0.1,0,0.1,0c0,0,0-0.1,0-0.1
			C673.3,209.4,673.2,209.1,673.1,208.8z"/>
		<path class="st4" d="M675.7,211.2c-0.1-0.2-0.2-0.4-0.2-0.6c0-0.1,0-0.2-0.1-0.2c-0.1-0.1-0.2-0.3-0.3-0.2c-0.1,0.1,0,0.2,0,0.3
			c0.1,0.3,0.2,0.6,0,1c-0.1,0.1-0.1,0.2,0,0.3c0.1,0.1,0.1,0.3,0.1,0.4c0,0.1,0.2,0.2,0.1,0.4c0,0,0.1,0.1,0.1,0.1
			c0.1-0.1,0.2,0,0.3,0c0-0.1,0-0.2-0.1-0.2c-0.2-0.3-0.2-0.6-0.1-1C675.7,211.3,675.7,211.2,675.7,211.2z"/>
		<path class="st4" d="M684,176.9c-0.2-0.1-0.1-0.4-0.4-0.4c0,0,0,0,0-0.1c0-0.1,0-0.1,0-0.1c0-0.1-0.1-0.1-0.2,0
			c-0.1,0,0,0.1,0,0.1c0,0.1,0,0.1-0.1,0.1c-0.1,0-0.1-0.1-0.2,0c-0.1,0.1,0,0.1,0,0.2c0,0.1,0,0.1,0,0.2c0,0.1,0.1,0.3,0.1,0.4
			c0.1,0.1,0.2,0,0.3,0.1c0,0,0,0,0.1,0c0.1,0.1,0.3,0,0.4-0.1C684,177.2,684,176.9,684,176.9z"/>
		<path class="st4" d="M688.8,174.2c-0.1,0-0.1,0-0.1,0.1c0,0,0,0.1,0,0.1c-0.2,0-0.3,0.2-0.5,0.1c-0.2,0-0.4,0.1-0.4,0.2
			c-0.2,0.3,0,0.6,0.3,0.8c0-0.1,0-0.1,0-0.1c-0.1-0.2-0.1-0.3-0.1-0.5c0-0.1,0-0.2,0.2-0.2c0.2,0,0.4-0.2,0.6-0.1
			c0.1,0,0.1,0,0.1,0C688.9,174.4,688.9,174.3,688.8,174.2C688.9,174.2,688.9,174.2,688.8,174.2z"/>
		<path class="st4" d="M690.6,168.9c-0.3-0.3-0.4-0.8-0.8-1c-0.2-0.2-0.5-0.4-0.7-0.6c0,0.1,0,0.1,0,0.1c0.4,0.3,0.7,0.7,1.1,1.1
			c0.1,0.2,0.3,0.3,0.3,0.5c0,0.1,0,0.2,0.1,0.2c0.1,0,0-0.1,0-0.2C690.6,169,690.6,168.9,690.6,168.9z"/>
		<path class="st4" d="M670.5,180.8c0.3,0.1,0.5,0,0.8,0c0.1,0,0.2,0,0.2,0c0-0.2,0.2-0.1,0.3-0.2
			C671.2,180.3,670.9,180.4,670.5,180.8z"/>
		<path class="st4" d="M668.2,182c0.3,0.2,0.4,0.2,0.5,0.1C668.4,181.9,668.4,181.9,668.2,182z"/>
		<path class="st4" d="M683.4,176.1c0.1,0,0.2,0,0.3,0.1c0,0,0.1,0,0.1-0.1c0-0.1,0-0.1-0.1-0.1c-0.1,0-0.1,0-0.2,0c0,0-0.1,0-0.1,0
			C683.4,175.9,683.3,175.9,683.4,176.1C683.3,176,683.4,176,683.4,176.1z"/>
		<path class="st4" d="M664.3,172C664.3,171.9,664.3,171.9,664.3,172c-0.1-0.1-0.1,0-0.2,0c0,0,0,0,0,0
			C664.2,172,664.3,172,664.3,172z"/>
		<path class="st4" d="M664.1,172C664.1,172,664.1,172,664.1,172L664.1,172C664.1,172,664.1,172,664.1,172
			C664.1,172,664.1,172,664.1,172C664.1,172,664.1,172,664.1,172z"/>
		<polygon class="st4" points="696.7,172.9 696.7,172.9 696.7,172.9 696.7,172.9 696.7,172.9 		"/>
		<path class="st4" d="M696.8,173.1C696.8,173.1,696.8,173,696.8,173.1c-0.1-0.1-0.1-0.1-0.1-0.1C696.7,173,696.7,173.1,696.8,173.1
			z"/>
		<path class="st4" d="M688.9,167.2C688.9,167.2,688.9,167.2,688.9,167.2C689,167.2,689,167.2,688.9,167.2
			C689,167.2,688.9,167.2,688.9,167.2C688.9,167.1,688.9,167.1,688.9,167.2z"/>
	</g>
	<g>
		<path id="svg_4" class="st3" d="M495.9,398c-0.2,0.8-0.4,1.5-0.9,2c-0.3-0.2-0.6-0.4-0.5-1C495.1,398.8,494.9,397.8,495.9,398z"/>
		<path id="svg_5" class="st3" d="M496.9,406.2c-0.3,0.1,0.2,0.2,0.1,0.6c-0.3,0.1-0.2-0.3-0.6-0.2c0.1-0.5,0.1-0.5,0-1
			c-0.3,0.1-0.7,0.3-1,0.1c-0.1-0.2,0.2-0.1,0.1-0.3c-0.2,0.1-0.3,0.1-0.3,0.3c-0.1,0.2,0.2,0.1,0.2,0.3c0,0.3-0.1,0.4-0.3,0.5
			c-0.3-0.2-0.5-0.5-0.5-1c0-0.1,0.3,0,0.3-0.1c0.1-0.2-0.2-0.1-0.3-0.1c-0.1-0.2,0.2-0.1,0.1-0.3c0-0.1-0.2,0-0.3-0.1
			c0-0.4-0.3-0.6-0.2-1.2c0.2,0,0.3,0,0.4-0.1c0-0.4,0-0.8,0-1.2c0.2,0,0.3-0.3,0.5-0.4c0.4,0,0.4,0.3,1,0.2c0,0.5,0,1,0,1.4
			c-0.2,0.1-0.3,0.2-0.6,0.3c0,0.1,0,0.3,0,0.4c0,0.2,0.3,0.1,0.4,0.2c0,0.3-0.4,0.1-0.4,0.3c0,0.4,0.6,0.3,0.7,0.1
			c0.2,0.2,0.5,0.2,0.8,0.3c-0.1,0.5,0.2,0.6,0.3,1c0.3,0,0.5,0,0.8,0c0,0.1,0.1,0.2,0.2,0.2c0,0.3,0,0.5,0,0.8c-0.1,0-0.2,0-0.3,0
			c-0.1,0.3,0.2,0.2,0.1,0.5c-0.1,0.1-0.2,0.1-0.4,0.1c0-0.4-0.4-0.7-0.1-1.1C497.3,406.4,496.9,406.4,496.9,406.2z"/>
		<path id="svg_6" class="st3" d="M496.7,407.9c0.2,0,0.2-0.2,0.4-0.1c0,0.2,0.3,0.1,0.2,0.4c-0.7-0.2-0.8,0.3-1.3,0.4
			c-0.2-0.1-0.4-0.2-0.3-0.5c0-0.3,0.4-0.2,0.3-0.5c-0.1-0.2-0.5,0-0.8-0.1c0-0.3,0.3-0.4,0.2-0.8c0.8-0.2,0.7,0.5,1.1,0.8
			c0.2,0,0.1-0.3,0.2-0.3C497.2,407.3,496.9,407.8,496.7,407.9z"/>
		<path id="svg_7" class="st3" d="M497.8,408c0.2,0,0.2,0.2,0.5,0.1c-0.1,0.4,0.2,0.4,0.3,0.5c0,0.4-0.1,0.9,0.2,1
			c-0.2,0.2-0.2,0.7-0.6,0.8c0-0.1,0.1-0.4-0.1-0.3c-0.3,0.1-0.1,0.7-0.1,1c-0.6,0-0.9-0.4-1.2-0.7c-0.1-0.2,0.1-0.3,0.1-0.4
			c0-0.2-0.1-0.3-0.3-0.3c-0.2,0.1-0.5,0.3-0.7,0.1c-0.2,0-0.1,0.3-0.2,0.3c-0.6-0.6,0.5-1.1,1.1-1.2c0,0.1,0,0.2,0,0.3
			c0.3,0,0.4-0.2,0.6-0.2c0-0.1,0-0.2,0-0.3c0.2,0,0.3,0,0.4-0.1C497.8,408.4,497.8,408.2,497.8,408z"/>
		<path id="svg_8" class="st3" d="M471.6,408.8c0.5,0.3,1.1,2.7-0.3,2.5C471.2,410.3,471.5,409.7,471.6,408.8z"/>
		<path id="svg_9" class="st3" d="M492.2,409.8c-0.1,0.5,0.2,0.6,0.3,1c0.6-0.1,0.7,0.3,1,0.5c0,0.3-0.5,0.2-0.4,0.8
			c-0.2,0-0.4,0-0.5,0c-0.1,0.2,0,0.6-0.2,0.7c0.1,0.3,0.5,0.4,0.3,1c0.2,0.2,0.7,0.2,0.6,0.8c-0.3,0.1-0.8-0.2-0.8,0.2
			c0.2,0.3,0.8,0.2,0.6,0.8c-0.4,0-0.3-0.4-0.7-0.4c-0.2,0-0.1,0.4-0.1,0.6c-0.4-0.1-0.4,0.2-0.6,0.3c0.1,0.9-0.3,1.1-0.2,2
			c-0.4-0.3-0.7-0.1-1.2,0c-0.1-1-1.3-0.7-1.8-0.4c0-0.2,0-0.3-0.1-0.4c-0.3,0-0.6,0-1,0c0-0.4-0.3-0.5-0.2-1.1
			c0-0.2-0.2-0.1-0.4-0.1c-0.1-0.7-0.5-1-0.4-1.8c0.2,0,0.3-0.3,0.5-0.4c0.4-0.1,0.3,0.3,0.8,0.2c0.3-0.5,0.9-0.5,1.2-1
			c0.9-0.2,0.8-1.4,2-1.4c0.1-0.1,0.1-0.2,0.1-0.4c0.1,0,0.2,0,0.3,0c0-0.5,0.5-0.5,0.5-1C492,410.2,491.9,409.8,492.2,409.8z"/>
		<path id="svg_10" class="st3" d="M478.3,411.3c0.1,0,0.2,0,0.3,0c0.2,0.2,0.5,0.2,1,0.2c0.4,0.4,0.5,1.2,1.2,1.2
			c0.1,0.8,0.9,1,1.6,1.2c0.1,0.5,0.7,0.6,0.9,1.1c0.1,0.4-0.3,0.3-0.2,0.6c0.7,0.1,0.5,1,1.2,1.2c0.1-0.3-0.2-0.2-0.1-0.4
			c0.2-0.1,0.3-0.3,0.6-0.2c-0.2,0.8,0.6,0.7,0.4,1.2c-0.2,0.1-0.1-0.2-0.3-0.1c-0.6,0.6,0.1,1.3-0.3,2c-0.3-0.1-0.5-0.3-1-0.2
			c-0.2-0.7-1.2-0.5-1.2-1.4c-0.1-0.1-0.2-0.1-0.4-0.1c0-0.4-0.2-0.7-0.4-0.9c0-0.5-0.2-0.8-0.4-1c0-1.5-1.4-1.6-1.6-2.9
			C478.8,412.5,478.3,412.1,478.3,411.3z"/>
		<path id="svg_13" class="st3" d="M501,415.6c0.1,0,0.1,0,0.2,0c-0.2,0.6,0.3,0.6,0.4,1c-0.2,0-0.4,0-0.6,0
			C501.1,416.2,500.9,415.9,501,415.6z"/>
		<path id="svg_14" class="st3" d="M503.3,416.7c-0.1,0-0.6,0.2-1,0.1c-0.1-0.3,0.2-0.2,0.2-0.4c-0.2-0.4-1.2,0-1-0.8
			c0.6,0,1.5-0.1,2.5-0.1c0.3,0.1,0.1,0.7,0.4,0.8c0.1,0.2-0.2,0.1-0.1,0.3c0,0.1,0.2,0,0.3,0.1c0,0.2,0,0.3,0,0.5
			c0,0.2,0.3,0.1,0.5,0.1c0.4-0.6,1.2-0.9,1.6-1.4c0.6,0.4,1,0.9,2,0.8c0.6,0.3,1.1,0.6,2,0.6c0.3,0.5,0.9,0.7,1.4,1
			c0,0.2,0,0.4,0,0.5c0.5,0.2,1.2,0.2,1.2,0.9c-0.2,0-0.4,0-0.4,0.1c-0.1,0.3,0.3,0.2,0.2,0.6c0.1,0.1,0.2,0.1,0.4,0.1
			c-0.1,0.4,0.3,0.3,0.2,0.8c0.6,0.2,1.1,0.6,1.2,1.3c-0.4,0.1-0.5-0.2-0.7-0.4c-0.4,0-0.8,0-1.2,0c-0.3-0.5-0.7-0.8-0.8-1.4
			c-0.5-0.2-1.1-0.6-1.6-0.2c0.1,0.4-0.3,0.3-0.2,0.8c-0.5,0.1-1,0.3-1.6,0.2c-0.4-0.9-1.2-0.8-2.3-0.6c-0.1-0.6,0.2-0.8,0.6-0.9
			c-0.2-1.3-1.2-1.8-2.5-2c-0.5-0.4-0.9-0.5-1.6-0.2c0.1-0.5-0.1-0.8-0.6-0.8C502.6,416.9,503.2,417.1,503.3,416.7z"/>
		<path id="svg_15" class="st3" d="M500.4,416.4c0,0.3-0.4,0.5-0.6,0.3C500,416.6,500.2,416.5,500.4,416.4z"/>
		<path id="svg_16" class="st3" d="M501.7,417.8c-0.4-0.4-0.9-0.2-1.3-0.3c-0.3,0-0.3,0.5-0.8,0.3c0-0.2,0.3-0.3,0-0.5
			C500,416.6,501.9,417.1,501.7,417.8z"/>
		<path id="svg_17" class="st3" d="M499.2,417.5c0,0.3-0.4,0.4-0.8,0.3C498.2,417.2,499,417,499.2,417.5z"/>
		<path id="svg_18" class="st3" d="M487.5,420c0.1,0,0-0.2,0.1-0.3c0.6,0,1,0.2,1.4,0.4c0.2-0.2,0.6-0.2,1-0.2
			c0,0.4-0.5,0.3-0.8,0.5c0.1,0.3,0.7,0.1,1,0.1c0.1,0.3,0.4,0.5,0.8,0.4c0,0.2,0,0.3-0.1,0.4c-0.4,0-0.6-0.4-0.8,0
			c-0.3-0.4-1.2-0.2-1.8-0.2c-0.4-0.2-0.8-0.4-1.4-0.4c-0.2,0.1-0.1-0.2-0.3-0.2c-0.8,0.4-1.7-0.3-2.3-0.7c0.3-0.7,0.6-0.3,1.5-0.3
			C486.1,419.9,486.9,419.8,487.5,420z"/>
		<path id="svg_19" class="st3" d="M498.8,420.6c0.1,0.2-0.6,0.2-0.6,0.1C498.1,420.4,498.7,420.5,498.8,420.6z"/>
		<path id="svg_20" class="st3" d="M493.5,421.3c-0.8,0.3-1.5,0.1-2.3,0.2c0-0.4,0.1-0.6,0.5-0.6
			C492.1,421.5,493.3,420.3,493.5,421.3z"/>
		<path id="svg_21" class="st3" d="M495.3,421.1c0,0.1,0,0.3,0,0.4c-0.7,0.2-0.8-0.3-1.4-0.2C494,420.5,494.7,421.2,495.3,421.1z"/>
		<path id="svg_22" class="st3" d="M497.6,421c0.1,0.2-0.6,0.2-0.6,0.1C496.9,420.8,497.5,420.9,497.6,421z"/>
		<path id="svg_23" class="st3" d="M499.1,421.2c-0.6,0.4-1.4,0.5-1.7,1.2c-0.5-0.1-0.5,0.2-0.8,0.2c-0.2-1.1,1-0.8,1.3-1.4
			C498.4,421.4,499,420.6,499.1,421.2z"/>
		<path id="svg_24" class="st3" d="M514.8,421.5c0.4,0.1,0.5,0.4,0.7,0.7c-0.1,0,0,0.1-0.1,0.1c-0.2-0.1-0.3-0.5-0.6-0.5
			C514.7,421.7,514.8,421.6,514.8,421.5z"/>
		<path id="svg_25" class="st3" d="M493.5,421.7c0.3,0,0.5,0,0.8,0c0,0.3,0.5,0.2,0.4,0.6c-0.6,0.1-0.6-0.3-1.2-0.2
			C493.5,422,493.5,421.9,493.5,421.7z"/>
		<path id="svg_26" class="st3" d="M505.1,437.3c0.2,0,0.3-0.2,0.4-0.3c-0.6,0-0.9,0.9-1.6,1c0.1-0.9-0.7-0.8-0.7-1.4
			c-0.7,0-1.1-0.2-1.5-0.4c-0.3-0.1-0.2,0.3-0.5,0.2c-0.4-0.4-1.1,0-1.4,0.2c-1.3-0.1-2.1,0.3-2.6,1c-0.3,0-0.6,0-0.9,0
			c-0.6-0.5-1.4,0.1-1.8,0.4c-0.9,0.1-1.6,0-2-0.5c0.3-0.6,0.2-1.5-0.4-1.8c-0.1-1.2-0.9-1.6-1.2-2.7c0.1,0,0.2,0,0.3,0
			c-0.1-0.6-0.5-0.8-0.8-1.3c0.4-0.3,0-1.3,0.3-1.6c0.3-0.1,0,0.4,0.2,0.3c0.4-0.4,0.9-0.8,1.4-1.2c0.2-0.1,0.3,0.1,0.4,0.1
			c0.3-0.2,0.9-0.2,1.2-0.5c0.9,0.4,1.4-0.6,1.8-1.1c0-0.3,0-0.5,0-0.8c0.3,0,0.2-0.5,0.6-0.4c0,0.3,0.1,0.5,0.3,0.5
			c0.2-0.1,0-0.5,0.1-0.8c0.2,0,0.4,0,0.5,0c0.1-0.3-0.2-0.2-0.1-0.4c0.6-0.5,1.1-1,1.9-1.2c0.3,0.2,0.5,0.5,0.8,0.8
			c0.4-0.3,0.4,0.2,0.9,0.1c-0.3-0.4,0-0.6,0.1-1c0.2,0,0.3,0,0.4-0.1c0-0.2,0-0.4,0-0.5c0.4-0.3,1.3,0,1.6-0.5
			c0-0.3-0.4-0.2-0.3-0.5c1.1,0.3,2.1,1,3.1,0.6c0,0.2,0.3,0.2,0.2,0.5c-0.5,0.3-0.6,1-1,1.4c0.4,0.7,1.4,0.7,1.8,1.4
			c0.2,0,0.4,0,0.5,0c-0.1,0.5,0.4,0.4,0.6,0.6c0.3,0,0.2-0.3,0.5-0.2c0.3-0.6,0.6-1.2,0.5-2.3c0.2-0.4,0.4-0.8,0.4-1.4
			c0.1-0.2,0.3-0.4,0.2-0.8c0.1,0,0.3,0,0.4,0c0.1,0.7,0.5,1.2,0.4,2.1c0.1,0.4,0.8,0.3,1,0.5c-0.2,1.3,0.6,1.5,0.4,2.7
			c0.4,0.4,0.9,0.7,1.4,1c-0.1,0.6,0.3,0.6,0.2,1.1c0.2,0.2,0.4,0.2,0.6,0.3c0,0.8,0.6,1.2,1,1.6c-0.1,0.7-0.3,1.3-0.2,2.3
			c-0.5,0.3-0.7,0.8-0.8,1.4c-0.2,0.1-0.5,0.2-0.4,0.6c-0.5,0-0.8,0.3-0.8,0.8c-0.3,0.3-0.8,0.4-0.8,1c-0.2,0-0.2,0.3-0.4,0.3
			c0,0.2,0,0.4,0,0.5c-0.5,0.3-1.5,0-1.6,0.6c-0.3,0-0.7,0-1,0c0-0.1,0-0.2,0-0.3c-0.3,0-0.3,0.2-0.5,0.3c-0.9,0.2-1.2-0.3-2-0.2
			c0-0.1-0.1-0.2-0.2-0.2c0-0.2,0-0.5,0-0.7c-0.2-0.1-0.2-0.4-0.6-0.3c-0.1-0.3,0.2-0.3,0.1-0.6c-0.4,0-0.4,0.4-0.8,0.4
			C504.9,437.8,505.2,437.7,505.1,437.3z"/>
		<path id="svg_27" class="st3" d="M521.9,437.1c0.1,0,0.1,0,0.2,0c0,0.3,0.1,0.7-0.1,0.9c0.1,0.2,0.2,0.4,0.2,0.5
			c0.3,0.1,0.2-0.3,0.5-0.2c-0.2,0.4-0.4,0.8-1,0.8c-0.1,0.7-0.8,0.9-1.3,1.2c0-0.4,0.3-0.3,0.4-0.5c0.1-0.3-0.2-0.2-0.2-0.3
			C521.3,438.8,522,438.2,521.9,437.1z"/>
		<path id="svg_28" class="st3" d="M505.1,438.4c0.1,0.2-0.6,0.2-0.6,0.1C504.5,438.2,505.1,438.3,505.1,438.4z"/>
		<path id="svg_29" class="st3" d="M520.3,440.1c-0.2,0.7-1.1,0.8-1.4,1.4c-0.5,0-0.9,0.1-0.8,0.6c-0.7,0.1-1.1,1-1.8,0.3
			c0.4-0.3,0.8-0.7,1.3-1C518.8,441.5,518.9,440.2,520.3,440.1z"/>
		<path id="svg_30" class="st3" d="M508.2,440.8c0.4-0.1,0.6,0.1,0.8,0.2c0.2-0.1,0.4-0.3,0.8-0.2c0.2,1-1.1,1.6-1.6,1
			C508.5,441.4,508.1,441.3,508.2,440.8z"/>
		<path id="svg_32" class="st3" d="M498.3,380.9c11.3-0.5,19.8,4,25.5,9.4c5.8,5.4,10.6,13.3,11.1,23.8c0.3,5.8-0.9,10.7-2.6,14.9
			c-1.7,4.1-4,7.7-6.8,10.6c-5.6,5.9-13.1,10.5-23.9,11c-11.2,0.5-19.7-3.9-25.5-9.3c-6-5.6-10.5-13.1-11.1-23.8
			c-0.6-11.4,3.9-19.7,9.2-25.5c4-4.4,9.5-8,16.3-9.9C493,381.4,495.8,381,498.3,380.9z M508.3,383.8c-1,0-1.8-0.3-2.9-0.2
			c-0.6-0.6-1.2,0.2-1.6,0.4c-0.3,0.2-0.8,0.1-0.8,0.5c0.2,0.2,0.3-0.2,0.6-0.1c0,0.2-0.2,0.2-0.1,0.4c0.5-0.3,1-0.1,1.5,0.1
			c0.2,0,0.1-0.4,0.4-0.3c0.6,0.3,0.5,1.4,1.3,1.5c0,0.1,0,0.2,0,0.3c0,0.2-0.4,0-0.4,0.1c0,0.2,0,0.3,0,0.5
			c0.3,0.1,0.6,0.1,0.6,0.5c-0.2,0-0.6-0.1-0.6,0.1c0.1,0.4,0.6,0.3,0.7,0.7c0.5,0,1,0,1.2,0.3c-0.1,0,0,0.2-0.1,0.3
			c-0.6-0.2-0.6,0.3-1,0.4c-0.1-0.2-0.5-0.2-0.8-0.2c0,0.6,0.5,0.8,0.8,1.2c-0.3,0.6-0.5,1.2-0.4,2.1c-0.2-0.1-0.1,0.2-0.3,0.2
			c-0.1,0-0.1-0.2-0.3-0.1c-0.2,0.5-0.9,0.3-1.4,0.2c0,0.4-0.3,0.6-0.5,0.8c-0.3-0.2-0.4-0.5-0.6-0.8c-0.2,0.1,0.1,0.7-0.1,0.8
			c-0.6-0.1-0.7,0.2-1.1,0.2c-0.1-0.1,0-0.5-0.1-0.6c-0.2,0-0.3,0-0.5,0c0,0.4,0.4,0.3,0.3,0.7c-0.3,0.2-0.1,0.9-0.5,1
			c-0.1-0.2-0.3-0.2-0.5-0.3c0-0.5-0.5-0.6-0.4-1.2c0.7-0.3,1.2-0.6,1.7-1c0.8,0.2,1.2-0.4,1.8-0.1c0-0.1-0.1-0.4,0.1-0.3
			c0.5,0,0.6-0.5,1.3-0.4c0.1-0.2-0.3-0.3-0.1-0.4c0.2-0.1,0.1,0.2,0.3,0.1c0.3-0.6,0.2-1.7-0.2-2.1c0.2-0.3,0.8-0.2,0.8-0.7
			c-0.2-0.3-0.3-0.6-0.2-1.1c-0.5-0.4-0.3-1.5-1-1.7c0,0.5,0,0.9,0,1.4c-0.3,0.2-0.6,0.4-0.7,0.8c-0.9,0.4-1.5,1.8-2.9,1
			c-0.3,0.3-1,0.4-1,1c-0.3,0.3-0.9,0.2-1,0.7c0.7,0.3,1.1,0.9,1,2c-0.6,0.1-1.1,0.4-1.8,0.4c0.1-0.8,0-1.1,0.1-1.6
			c-0.4,0-0.9,0-1-0.3c0.2-0.1,0.3-0.3,0.2-0.6c-0.9-0.4-1.5,0.5-2,0.5c0.1-0.4,0.4-0.6,0.5-1c-1.1,0-1.2,0.9-2.3,0.8
			c0,0.4,0.3,0.4,0.5,0.5c0,0.2,0,0.4,0.2,0.3c0.3-0.1,0.5-0.3,0.8-0.4c0.1,0.3,0.7,0.1,0.9,0.3c0,0.1,0,0.2,0,0.3
			c-0.9,0-1.3,0.5-1.8,1c0.1,0.2,0.4,0.4,0.5,0.5c-0.1,0.9,0.9,0.7,0.6,1.7c-0.1,0.2-0.6-0.1-0.5,0.2c0.1,0.2,0.7-0.1,0.8,0.1
			c-0.3,0.4-0.3,1.2-1,1.2c0,0.8-1,0.6-0.8,1.6c-0.9,0-0.7,1.1-1.8,1c-0.1,0.2-0.3,0.3-0.3,0.6c-1.1,0.1-1.6,0-2.3,0.6
			c-0.7,0.1-1.5,0.3-1.8,0.8c0,0.3,0.4,0.2,0.4,0.5c-0.4,0.3-0.5,1-1.2,1.1c-0.2-0.2-0.5-0.3-0.5-0.7c0.1-0.5,0.8-0.5,1.2-0.7
			c-0.5,0-0.3-0.7-0.6-0.9c-1.1,0.1-1.4,0.9-2.2,1.3c-0.2,0.8,0.2,0.9,0.4,1.2c0,0.1,0,0.2,0,0.3c0.1,0.2,0.7,0.5,0.8,0.8
			c0.2,0.3,0.1,0.5,0.4,0.6c0,0.7,0,1.4,0,2.1c-0.4,0.6-1,1.1-1.8,1.3c-0.2,0.7-0.9,0.8-1.3,1.2c0-0.4,0-0.8,0-1.2
			c-0.1-0.1-0.4-0.1-0.6-0.1c0.1-0.4-0.2-0.4-0.4-0.5c0-0.2,0-0.5,0-0.7c-0.4,0-0.5-0.4-1-0.3c0-0.2,0.1-0.7-0.2-0.6
			c-0.3,0.2-0.5,0.6-0.4,1.2c-0.3,0.4-0.6,0.8-0.6,1.4c0,0.1,0.4,0,0.4,0.1c-0.1,0.7,0.3,0.8,0.2,1.5c0.9,0,1.1,0.8,1.6,1.2
			c0,0.5,0,1.1,0,1.6c0.2,0.3,0.5,0.6,0.4,1.3c0.1,0.1,0.4,0,0.4,0.2c-0.1,0.2-0.4,0-0.6,0.1c-0.3-0.9-1.6-0.8-1.6-2
			c-0.2-0.1-0.4-0.2-0.4-0.4c0.2-0.2-0.1-0.9,0-1.4c-0.4-0.2-0.5-0.6-0.6-1c0-0.1-0.4,0-0.4-0.1c-0.1-1,0.6-1.9,0.2-2.5
			c0.6-0.9-0.3-2,0-3.3c-0.6,0.1-0.9,1-1.6,0.7c0.1-0.6,0.5-1.6,0-2.1c-0.1-0.3,0.2-0.2,0.1-0.5c-0.6,0-0.5-0.7-0.5-1.4
			c-0.6,0.3-1,0.6-2,0.5c0,0.1-0.1,0.2-0.3,0.3c0,0.2,0,0.4,0,0.5c-0.3,0-0.3,0.5-0.8,0.4c-0.5,0.8-1.4,1.1-1.7,2
			c-0.3,0-0.2,0.3-0.5,0.2c0,0.5-0.5,0.4-0.7,0.7c0.2,1.5-0.6,1.9-0.6,3.1c-0.6,0.4-0.5,1.5-1.2,1.7c-0.4-1.6-0.1-3.9-0.2-5.9
			c0-0.1,0.3-0.1,0.2-0.3c-0.1-0.8,0.3-1.2,0.4-1.8c-0.3,0-0.3,0.2-0.6,0.1c-0.1-0.6,0.1-0.9,0.3-1.2c-0.2-0.2-0.1-0.8-0.1-1.2
			c-0.3,0-0.4,0.2-0.8,0.1c-2.2,4.2-3.6,8.7-3.9,14.7c-0.3,6.5,1.4,11.9,3.6,16.4c3.3,6.6,8.6,11.9,15.2,15.2
			c3.4,1.7,7.6,3.2,11.8,3.5c7.4,0.5,13.5-0.8,18.8-3.5c6.7-3.3,11.9-8.6,15.2-15.2c1.7-3.4,3.2-7.5,3.5-11.8
			c0.4-6.6-0.6-12.1-2.6-16.9c-3.1-7.2-8-12.7-14.7-16.4c-1.2-0.6-3.3-2-4.7-2c-0.1-0.1-0.1-0.3-0.3-0.2c-0.5,0.2-0.4,0.1-0.9,0
			c0.1,0.6,0.9,0.5,1.2,0.9c0.2,0.8-0.6,0.6-0.4,1.4c-0.3,0.1-0.3,0.4-0.6,0.4c0.3-1.1-1.5-1.1-1.4-2.5c0.5,0.1,0.4-0.3,0.5-0.6
			c-0.4-0.1-0.2,0.3-0.5,0.2c0-0.2-0.2-0.2-0.3-0.4c-0.2,0-0.5,0-0.7,0C508.3,383.3,508.5,383.8,508.3,383.8z"/>
		<path id="svg_33" class="st3" d="M497.4,414.1c0,0.2,0,0.4,0,0.6c-0.6-0.1-0.4,0.5-1,0.4c-0.1,0.3-0.1,0.7-0.4,0.7
			c-0.1,0.3,0.4,0,0.3,0.2c0,0.3-0.5,0.1-0.5-0.1c-0.2,0.2-0.3,0.5-0.5,0.7c0.3,0.6,0.4,1.3,1,1.6c-0.1,0.2-0.3,0.3-0.2,0.8
			c-0.1,0-0.3,0-0.4,0c0-0.1,0-0.2,0-0.3c-0.3-0.1-0.2,0.2-0.4,0.1c-0.1-0.2-0.3-0.3-0.4-0.5c0-0.2,0.1-0.1,0.1-0.2
			c-0.4-0.2-0.2-0.9-0.5-1.2c-0.4,0.3-0.1,1.4-0.2,2c-0.3,0-0.5,0-0.8,0c0-0.5,0.3-0.7,0.2-1.4c-0.1-0.1-0.4-0.1-0.6-0.1
			c0.1-0.9,0.4-1.5,0.2-2.3c0.2,0,0.2-0.2,0.2-0.4c0.1,0,0.2,0,0.3,0C494.1,413.4,496.2,414.9,497.4,414.1z M495.7,415.6
			c0.3-0.1,0.5-0.5,0.5-0.8c-0.5,0-1,0-1.5,0C495.1,415,495.5,415.2,495.7,415.6z M494.1,415.2c0,0.1,0,0.2,0,0.3
			c0.3,0.1,1.1,0.2,1.2-0.1C495.3,415,494.4,415.2,494.1,415.2z"/>
		<path id="svg_34" class="st3" d="M499.4,413.5c0.1,0,0.1,0,0.2,0c0.1,0.2,0,0.3,0,0.5c0.3,0.1,0.2-0.2,0.5-0.1
			c0,0.1,0.1,0.1,0.1,0.2c0.1,0.3-0.3,0.1-0.2,0.4c0,0.3,0.5,0.2,0.4,0.6c-0.7-0.2-0.6,0.5-1,0.5c0,0.3,0.3,0.3,0.4,0.5
			c-0.1,0.3-0.3,0.4-0.6,0.3C499,415.4,499.1,414.6,499.4,413.5z"/>
	</g>
</g>
<g id="Layer_3">
	<g>
		<path class="st5" d="M528.8,383.2l64.7-52.3c6.1-4.9,6.1-14.1,0-19l-66.9-54.5c-5-4.1-12.6-0.5-12.6,6v34.1l-73.2,0.1
			c-8.4,0-15.3,6.9-15.3,15.3v16.6c0,6.3,5.1,11.4,11.4,11.4l77.1-0.1v35.3C514.1,383.8,522.9,388,528.8,383.2z"/>
	</g>
</g>
</svg>
